<svg width="32" height="32" viewBox="0 0 32 32" xmlns="http://www.w3.org/2000/svg" class="rxLNL ___soczk60 f1w7gpdv fez10in fve0sb9" fill="currentColor" aria-hidden="true"><path d="M4.34 11.43c.2.99 1.18 1.63 2.17 1.44L24.8 9.32A2.78 2.78 0 0027 6l-.07-.33a2.89 2.89 0 00-3.37-2.23L6.25 6.81a2.78 2.78 0 00-2.19 3.31l.28 1.31z" fill="url(#paint0_radial_79311_35749)"></path><path d="M4.34 11.43c.2.99 1.18 1.63 2.17 1.44L24.8 9.32A2.78 2.78 0 0027 6l-.07-.33a2.89 2.89 0 00-3.37-2.23L6.25 6.81a2.78 2.78 0 00-2.19 3.31l.28 1.31z" fill="url(#paint1_radial_79311_35749)" fill-opacity="0.5"></path><path d="M4.34 11.43c.2.99 1.18 1.63 2.17 1.44L24.8 9.32A2.78 2.78 0 0027 6l-.07-.33a2.89 2.89 0 00-3.37-2.23L6.25 6.81a2.78 2.78 0 00-2.19 3.31l.28 1.31z" fill="url(#paint2_radial_79311_35749)" fill-opacity="0.3"></path><path d="M4 24.5A3.5 3.5 0 007.5 28h17.67A2.83 2.83 0 0028 25.17v-1.08c0-1.73-1.4-3.13-3.13-3.13H7.98A3.97 3.97 0 014 17v7.5z" fill="#7611F0"></path><path d="M4 24.5A3.5 3.5 0 007.5 28h17.67A2.83 2.83 0 0028 25.17v-1.08c0-1.73-1.4-3.13-3.13-3.13H7.98A3.97 3.97 0 014 17v7.5z" fill="#A966FF" fill-opacity="0.2"></path><path d="M4 24.5A3.5 3.5 0 007.5 28h17.67A2.83 2.83 0 0028 25.17v-1.08c0-1.73-1.4-3.13-3.13-3.13H7.98A3.97 3.97 0 014 17v7.5z" fill="url(#paint3_linear_79311_35749)" fill-opacity="0.4"></path><path d="M4 24.5A3.5 3.5 0 007.5 28h17.67A2.83 2.83 0 0028 25.17v-1.08c0-1.73-1.4-3.13-3.13-3.13H7.98A3.97 3.97 0 014 17v7.5z" fill="url(#paint4_linear_79311_35749)" fill-opacity="0.15"></path><path d="M4 24.5A3.5 3.5 0 007.5 28h17.67A2.83 2.83 0 0028 25.17v-1.08c0-1.73-1.4-3.13-3.13-3.13H7.98A3.97 3.97 0 014 17v7.5z" fill="url(#paint5_linear_79311_35749)" fill-opacity="0.3"></path><path d="M4 24.5A3.5 3.5 0 007.5 28h17.67A2.83 2.83 0 0028 25.17v-1.08c0-1.73-1.4-3.13-3.13-3.13H7.98A3.97 3.97 0 014 17v7.5z" fill="url(#paint6_linear_79311_35749)" fill-opacity="0.2"></path><path d="M4 14.65a3 3 0 003 3h18.17A2.83 2.83 0 0128 20.48v1.26-6.61a2.83 2.83 0 00-2.83-2.83H7a3 3 0 01-3-3v-.76 6.11z" fill="#BC7FFF"></path><path d="M4 14.65a3 3 0 003 3h18.17A2.83 2.83 0 0128 20.48v1.26-6.61a2.83 2.83 0 00-2.83-2.83H7a3 3 0 01-3-3v-.76 6.11z" fill="url(#paint7_linear_79311_35749)"></path><path d="M4 14.65a3 3 0 003 3h18.17A2.83 2.83 0 0128 20.48v1.26-6.61a2.83 2.83 0 00-2.83-2.83H7a3 3 0 01-3-3v-.76 6.11z" fill="url(#paint8_linear_79311_35749)" fill-opacity="0.8"></path><path d="M4 14.65a3 3 0 003 3h18.17A2.83 2.83 0 0128 20.48v1.26-6.61a2.83 2.83 0 00-2.83-2.83H7a3 3 0 01-3-3v-.76 6.11z" fill="url(#paint9_radial_79311_35749)"></path><path d="M4 19.26a3.5 3.5 0 003.5 3.5h17.67A2.83 2.83 0 0128 25.6V20.35a2.83 2.83 0 00-2.83-2.83H7.5a3.5 3.5 0 01-3.5-3.5v-.46 5.7z" fill="#974CFF"></path><path d="M4 19.26a3.5 3.5 0 003.5 3.5h17.67A2.83 2.83 0 0128 25.6V20.35a2.83 2.83 0 00-2.83-2.83H7.5a3.5 3.5 0 01-3.5-3.5v-.46 5.7z" fill="#A966FF" fill-opacity="0.35"></path><path d="M4 19.26a3.5 3.5 0 003.5 3.5h17.67A2.83 2.83 0 0128 25.6V20.35a2.83 2.83 0 00-2.83-2.83H7.5a3.5 3.5 0 01-3.5-3.5v-.46 5.7z" fill="url(#paint10_linear_79311_35749)" fill-opacity="0.4"></path><path d="M4 19.26a3.5 3.5 0 003.5 3.5h17.67A2.83 2.83 0 0128 25.6V20.35a2.83 2.83 0 00-2.83-2.83H7.5a3.5 3.5 0 01-3.5-3.5v-.46 5.7z" fill="url(#paint11_linear_79311_35749)" fill-opacity="0.4"></path><path d="M4 19.26a3.5 3.5 0 003.5 3.5h17.67A2.83 2.83 0 0128 25.6V20.35a2.83 2.83 0 00-2.83-2.83H7.5a3.5 3.5 0 01-3.5-3.5v-.46 5.7z" fill="url(#paint12_linear_79311_35749)" fill-opacity="0.6"></path><defs><linearGradient id="paint3_linear_79311_35749" x1="19.4" y1="22.5" x2="18.69" y2="26.66" gradientUnits="userSpaceOnUse"><stop stop-color="#330072"></stop><stop offset="1" stop-color="#7611F0" stop-opacity="0"></stop></linearGradient><linearGradient id="paint4_linear_79311_35749" x1="9.39" y1="22.5" x2="9.39" y2="28.67" gradientUnits="userSpaceOnUse"><stop stop-color="#9136F2" stop-opacity="0"></stop><stop offset="0.84" stop-color="#B76AFF"></stop></linearGradient><linearGradient id="paint5_linear_79311_35749" x1="10.55" y1="22.1" x2="4" y2="22.16" gradientUnits="userSpaceOnUse"><stop stop-color="#9136F2" stop-opacity="0"></stop><stop offset="0.84" stop-color="#B76AFF"></stop></linearGradient><linearGradient id="paint6_linear_79311_35749" x1="20.77" y1="22.16" x2="30.72" y2="30.25" gradientUnits="userSpaceOnUse"><stop stop-color="#9136F2" stop-opacity="0"></stop><stop offset="0.84" stop-color="#B76AFF"></stop></linearGradient><linearGradient id="paint7_linear_79311_35749" x1="10.55" y1="14.73" x2="4" y2="14.73" gradientUnits="userSpaceOnUse"><stop stop-color="#BC80FF" stop-opacity="0"></stop><stop offset="0.84" stop-color="#ECB4FF"></stop></linearGradient><linearGradient id="paint8_linear_79311_35749" x1="20.05" y1="14.73" x2="28" y2="14.73" gradientUnits="userSpaceOnUse"><stop stop-color="#BC7FFF" stop-opacity="0"></stop><stop offset="0.84" stop-color="#ECB4FF"></stop></linearGradient><linearGradient id="paint10_linear_79311_35749" x1="18.27" y1="13.34" x2="17.95" y2="20.86" gradientUnits="userSpaceOnUse"><stop stop-color="#6200D5"></stop><stop offset="1" stop-color="#3E008D" stop-opacity="0"></stop></linearGradient><linearGradient id="paint11_linear_79311_35749" x1="21.46" y1="19.38" x2="28" y2="19.38" gradientUnits="userSpaceOnUse"><stop stop-color="#9B54FD" stop-opacity="0"></stop><stop offset="0.84" stop-color="#ECB4FF"></stop></linearGradient><linearGradient id="paint12_linear_79311_35749" x1="10.55" y1="19.38" x2="4" y2="19.38" gradientUnits="userSpaceOnUse"><stop stop-color="#944EF6" stop-opacity="0"></stop><stop offset="0.84" stop-color="#ECB4FF"></stop></linearGradient><radialGradient id="paint0_radial_79311_35749" cx="0" cy="0" r="1" gradientTransform="matrix(-23.2899 15.0857 -14.9838 -23.8938 16.5 -9.85)" gradientUnits="userSpaceOnUse"><stop offset="0.62" stop-color="#974CFF"></stop><stop offset="0.91" stop-color="#5000B0"></stop></radialGradient><radialGradient id="paint1_radial_79311_35749" cx="0" cy="0" r="1" gradientTransform="matrix(-20.9954 8.26337 -8.27787 -21.4943 27.5 2.9)" gradientUnits="userSpaceOnUse"><stop offset="0.15" stop-color="#DE91FF"></stop><stop offset="0.68" stop-color="#D373FC" stop-opacity="0"></stop></radialGradient><radialGradient id="paint2_radial_79311_35749" cx="0" cy="0" r="1" gradientTransform="matrix(-13.543 9.35804 -9.28714 -13.8992 24.58 .63)" gradientUnits="userSpaceOnUse"><stop stop-color="#FFC7A3"></stop><stop offset="0.83" stop-color="#DE67FD" stop-opacity="0"></stop></radialGradient><radialGradient id="paint9_radial_79311_35749" cx="0" cy="0" r="1" gradientTransform="matrix(-7.8319 12.3486 15.8124 29.1661 23.83 -1.04)" gradientUnits="userSpaceOnUse"><stop stop-color="#FFC7A3"></stop><stop offset="0.83" stop-color="#DE67FD" stop-opacity="0"></stop></radialGradient></defs></svg>