<svg width="20" height="20" viewBox="0 0 20 20" xmlns="http://www.w3.org/2000/svg" aria-hidden="true"><path d="M9 10C9 8.89543 9.89543 8 11 8H16C17.1046 8 18 8.89543 18 10V15C18 16.1046 17.1046 17 16 17H11C9.89543 17 9 16.1046 9 15V10Z" fill="#FF0000"></path><path d="M9 10C9 8.89543 9.89543 8 11 8H16C17.1046 8 18 8.89543 18 10V15C18 16.1046 17.1046 17 16 17H11C9.89543 17 9 16.1046 9 15V10Z" fill="url(#paint0_radial_15124_12099)"></path><path d="M14 8C14 10.7614 11.7614 13 9 13C6.23858 13 4 10.7614 4 8C4 5.23858 6.23858 3 9 3C11.7614 3 14 5.23858 14 8Z" fill="#D9D9D9"></path><path d="M14 8C14 10.7614 11.7614 13 9 13C6.23858 13 4 10.7614 4 8C4 5.23858 6.23858 3 9 3C11.7614 3 14 5.23858 14 8Z" fill="url(#paint1_radial_15124_12099)"></path><path d="M14 8C14 10.7614 11.7614 13 9 13C6.23858 13 4 10.7614 4 8C4 5.23858 6.23858 3 9 3C11.7614 3 14 5.23858 14 8Z" fill="url(#paint2_radial_15124_12099)" fill-opacity="0.6"></path><path d="M14 8C14 10.7614 11.7614 13 9 13C6.23858 13 4 10.7614 4 8C4 5.23858 6.23858 3 9 3C11.7614 3 14 5.23858 14 8Z" fill="url(#paint3_radial_15124_12099)" fill-opacity="0.6"></path><path d="M9 13C11.7614 13 14 10.7614 14 8H11C9.89543 8 9 8.89543 9 10V13Z" fill="url(#paint4_linear_15124_12099)"></path><path d="M9 13C11.7614 13 14 10.7614 14 8H11C9.89543 8 9 8.89543 9 10V13Z" fill="url(#paint5_linear_15124_12099)"></path><path d="M4 6.85635C4.4971 6.85635 5.01614 7.30116 5.1886 7.52743L5.19275 7.52776C5.21398 7.55123 5.23466 7.57532 5.25478 7.6C5.53518 7.94407 5.69833 8.38978 5.79975 8.83013C6.00007 9.69992 6.00003 10.7457 6 11.4746V11.5C6 14.2873 5.62117 15.8681 5.20398 16.772C4.99389 17.2272 4.77136 17.5165 4.57769 17.6994C4.48105 17.7907 4.39316 17.854 4.3202 17.8974C4.28383 17.9191 4.25153 17.9356 4.22413 17.9481C4.21045 17.9543 4.19803 17.9595 4.18698 17.9638C4.18698 17.9638 4.07438 18 4 18C3.92563 18 3.81303 17.9638 3.81303 17.9638C3.80198 17.9595 3.78956 17.9543 3.77588 17.9481C3.74848 17.9356 3.71618 17.9191 3.67981 17.8974C3.60685 17.854 3.51895 17.7907 3.42232 17.6994C3.22865 17.5165 3.00612 17.2272 2.79602 16.772C2.37883 15.8681 2 14.2873 2 11.5V11.4746C1.99998 10.7457 1.99994 9.69991 2.20026 8.83013C2.30168 8.38978 2.46482 7.94407 2.74523 7.6C2.7658 7.57477 2.78695 7.55015 2.80869 7.52619L2.80685 7.52452L2.81184 7.52336C2.96156 7.29587 3.41835 6.85635 4 6.85635Z" fill="url(#paint6_radial_15124_12099)"></path><path d="M2.0809 9.53732C2.10944 9.29546 2.14804 9.05682 2.20025 8.83013C2.30166 8.38978 2.46481 7.94407 2.74522 7.6C2.76578 7.57477 2.78694 7.55015 2.80867 7.52619L2.80683 7.52452L2.81183 7.52336C2.96154 7.29587 3.41834 6.85635 3.99999 6.85635C4.49709 6.85635 5.01612 7.30116 5.18859 7.52743L5.19273 7.52776C5.21397 7.55123 5.23465 7.57532 5.25476 7.6C5.53517 7.94407 5.69832 8.38978 5.79973 8.83013C5.85194 9.05682 5.89054 9.29545 5.91908 9.53732C5.39894 9.82621 4.72991 10 3.99999 10C3.27007 10 2.60103 9.82621 2.0809 9.53732Z" fill="white" fill-opacity="0.24"></path><path d="M4.70381 2.7099C4.7964 2.50986 4.74705 2.27184 4.5809 2.12516C4.41094 1.97512 4.16129 1.95822 3.97265 2.08398L3.9709 2.08515L3.96805 2.08707L3.95916 2.09311L3.92936 2.11381C3.90443 2.13135 3.86961 2.15634 3.82717 2.18811C3.7425 2.25148 3.62622 2.34275 3.49671 2.45654C3.24542 2.67734 2.92008 3.00387 2.68863 3.39408C2.4953 3.6937 2.32741 4.06616 2.20709 4.42621C2.08733 4.78457 2 5.17432 2 5.5C2 6.35341 2.31614 7.07986 2.80869 7.52619C3.01069 7.75175 3.51471 8.09375 4.0352 8.09375C4.54976 8.09375 5.02052 7.72666 5.19961 7.53539C5.19686 7.53231 5.19409 7.52924 5.19132 7.52619C5.68386 7.07986 6 6.35341 6 5.5C6 4.80266 5.85878 4.32428 5.60353 3.9414C5.48131 3.75807 5.34326 3.61244 5.2147 3.48817C5.1467 3.42243 5.0937 3.37356 5.04403 3.32777C4.98278 3.27129 4.92656 3.21945 4.85356 3.14645C4.70345 2.99635 4.6875 2.87632 4.6875 2.8125C4.6875 2.77386 4.69404 2.74248 4.69951 2.7233C4.70137 2.71679 4.70296 2.71223 4.70381 2.7099Z" fill="#424242"></path><path d="M4.70381 2.7099C4.7964 2.50986 4.74705 2.27184 4.5809 2.12516C4.41094 1.97512 4.16129 1.95822 3.97265 2.08398L3.9709 2.08515L3.96805 2.08707L3.95916 2.09311L3.92936 2.11381C3.90443 2.13135 3.86961 2.15634 3.82717 2.18811C3.7425 2.25148 3.62622 2.34275 3.49671 2.45654C3.24542 2.67734 2.92008 3.00387 2.68863 3.39408C2.4953 3.6937 2.32741 4.06616 2.20709 4.42621C2.08733 4.78457 2 5.17432 2 5.5C2 6.35341 2.31614 7.07986 2.80869 7.52619C3.01069 7.75175 3.51471 8.09375 4.0352 8.09375C4.54976 8.09375 5.02052 7.72666 5.19961 7.53539C5.19686 7.53231 5.19409 7.52924 5.19132 7.52619C5.68386 7.07986 6 6.35341 6 5.5C6 4.80266 5.85878 4.32428 5.60353 3.9414C5.48131 3.75807 5.34326 3.61244 5.2147 3.48817C5.1467 3.42243 5.0937 3.37356 5.04403 3.32777C4.98278 3.27129 4.92656 3.21945 4.85356 3.14645C4.70345 2.99635 4.6875 2.87632 4.6875 2.8125C4.6875 2.77386 4.69404 2.74248 4.69951 2.7233C4.70137 2.71679 4.70296 2.71223 4.70381 2.7099Z" fill="url(#paint7_radial_15124_12099)"></path><defs><radialGradient id="paint0_radial_15124_12099" cx="0" cy="0" r="1" gradientUnits="userSpaceOnUse" gradientTransform="translate(10.1496 8.64282) rotate(42.4623) scale(10.6414 14.4539)"><stop stop-color="#C354FF"></stop><stop offset="0.157798" stop-color="#B339F0"></stop><stop offset="0.429343" stop-color="#F24A9D"></stop><stop offset="0.748908" stop-color="#FF835C"></stop><stop offset="1" stop-color="#FFC470"></stop></radialGradient><radialGradient id="paint1_radial_15124_12099" cx="0" cy="0" r="1" gradientUnits="userSpaceOnUse" gradientTransform="translate(4.92879 15.4458) rotate(-78.3815) scale(13.528 13.5279)"><stop offset="0.221888" stop-color="#4E46E2"></stop><stop offset="0.577558" stop-color="#625DF6"></stop><stop offset="0.954926" stop-color="#E37DFF"></stop></radialGradient><radialGradient id="paint2_radial_15124_12099" cx="0" cy="0" r="1" gradientUnits="userSpaceOnUse" gradientTransform="translate(2.68624 10.6258) rotate(-17.2815) scale(5.46112 7.14855)"><stop offset="0.566147" stop-color="#251FBA"></stop><stop offset="1" stop-color="#5E51E4" stop-opacity="0"></stop></radialGradient><radialGradient id="paint3_radial_15124_12099" cx="0" cy="0" r="1" gradientUnits="userSpaceOnUse" gradientTransform="translate(2.31249 6.91709) rotate(8.25944) scale(5.02351 5.13502)"><stop offset="0.566147" stop-color="#251FBA"></stop><stop offset="1" stop-color="#5E51E4" stop-opacity="0"></stop></radialGradient><linearGradient id="paint4_linear_15124_12099" x1="13.5089" y1="12.9267" x2="9.77172" y2="7.43439" gradientUnits="userSpaceOnUse"><stop offset="0.194812" stop-color="#6D37CD"></stop><stop offset="0.764931" stop-color="#EA71EF"></stop></linearGradient><linearGradient id="paint5_linear_15124_12099" x1="14.2997" y1="14.2181" x2="8.3401" y2="5.88844" gradientUnits="userSpaceOnUse"><stop offset="0.194812" stop-color="#7631FF"></stop><stop offset="0.885651" stop-color="#E63080"></stop></linearGradient><radialGradient id="paint6_radial_15124_12099" cx="0" cy="0" r="1" gradientUnits="userSpaceOnUse" gradientTransform="translate(2.45455 11.8737) rotate(177.712) scale(5.09497 12.5654)"><stop offset="0.0328025" stop-color="#F34E99"></stop><stop offset="0.559873" stop-color="#C61EBB"></stop></radialGradient><radialGradient id="paint7_radial_15124_12099" cx="0" cy="0" r="1" gradientUnits="userSpaceOnUse" gradientTransform="translate(5.18182 3.72656) rotate(112.913) scale(5.95419 4.17416)"><stop stop-color="#FEAD54"></stop><stop offset="0.47142" stop-color="#FF835C"></stop></radialGradient></defs></svg>