<svg viewBox="0 0 32 32" fill="none" xmlns="http://www.w3.org/2000/svg">
<path d="M10.836 17.1442C10.8197 17.0059 10.941 16.6509 10.7093 16.4173C10.518 16.2243 10.208 16.1624 9.82679 16.2316C8.02177 16.5444 6.10823 18.6437 6.10484 18.647C5.2788 19.473 4.75559 20.4418 4.47477 21.4993C4.34803 21.9809 4.27522 22.4694 4.2597 22.9616C4.20887 24.6572 4.8357 26.3523 6.10807 27.6623C7.73963 29.348 9.44691 29.8439 10.1843 30.0864C14.8037 31.5956 19.9551 29.9986 23.6485 26.3356C28.8517 21.1752 28.9267 12.8008 23.8575 7.54736C26.513 10.2926 25.9872 15.1588 22.7813 18.3383C22.5206 18.5968 21.0144 20.0437 18.9214 20.6824C17.0783 21.2479 15.6797 21.1106 14.4774 20.7854C13.2314 20.4498 12.1563 19.5284 11.7635 19.1323C11.3707 18.7362 10.9403 18.0078 10.836 17.1442Z" fill="url(#paint0_linear_6516_91177)"/>
<path d="M21.0483 6.07113C21.2132 6.43424 21.3535 6.81024 21.474 7.1994C21.835 8.37164 22.0082 9.65225 21.93 10.985C21.64 15.9256 19.2917 20.3077 14.9318 20.0517C12.3758 19.9017 11.3338 18.1812 10.8359 17.1442C10.7594 21.6197 15.399 23.7932 18.1263 23.9533C25.8371 24.406 27.0348 17.3455 27.1248 15.8129C27.1731 14.9895 27.0083 13.7285 26.8145 12.9624C26.803 12.914 26.7912 12.8703 26.775 12.8216C25.9456 9.86428 24.1235 7.30239 21.6712 5.54889C21.3181 5.29891 20.8707 5.67862 21.0483 6.07113Z" fill="url(#paint1_linear_6516_91177)"/>
<path d="M14.2536 1.59573C14.771 0.710647 15.8963 0.394079 16.7993 0.879567C17.7023 1.36506 18.0588 2.47831 17.6058 3.39805L10.8361 17.1444L6.52051 14.8241L14.2536 1.59573Z" fill="url(#paint2_linear_6516_91177)"/>
<path d="M1.60268 22.7551C0.959789 20.4151 2.30839 17.9068 4.61486 17.1526C6.92133 16.3983 9.31227 17.6838 9.95516 20.0238C10.5981 22.3637 9.24945 24.872 6.94298 25.6263L3.32357 26.8099C3.01604 26.9104 2.69725 26.739 2.61153 26.427L1.60268 22.7551Z" fill="url(#paint3_radial_6516_91177)"/>
<path d="M5.3623 16.9784L9.68188 19.291L10.8362 17.1443L6.52057 14.824L5.3623 16.9784Z" fill="url(#paint4_linear_6516_91177)"/>
<path d="M24.878 4.45594C24.5797 4.24387 24.5797 3.80098 24.878 3.58891L25.725 2.98664C26.0521 2.75405 26.3379 2.46827 26.5704 2.14117L27.1727 1.29417C27.3848 0.995936 27.8277 0.995936 28.0397 1.29417L28.642 2.14117C28.8746 2.46827 29.1604 2.75405 29.4875 2.98664L30.3345 3.58891C30.6327 3.80098 30.6327 4.24387 30.3345 4.45594L29.4875 5.0582C29.1604 5.29079 28.8746 5.57658 28.642 5.90368L28.0397 6.75068C27.8277 7.04891 27.3848 7.04891 27.1727 6.75068L26.5704 5.90368C26.3379 5.57658 26.0521 5.2908 25.725 5.05821L24.878 4.45594Z" fill="url(#paint5_linear_6516_91177)"/>
<path d="M17.7983 9.5767C17.2834 9.21054 17.2834 8.44582 17.7983 8.07965L19.2608 7.03974C19.8256 6.63813 20.319 6.14468 20.7206 5.57989L21.7606 4.11742C22.1267 3.60246 22.8914 3.60246 23.2576 4.11742L24.2975 5.57989C24.6991 6.14468 25.1926 6.63813 25.7574 7.03974L27.2198 8.07965C27.7348 8.44582 27.7348 9.21054 27.2198 9.5767L25.7574 10.6166C25.1926 11.0182 24.6991 11.5117 24.2975 12.0765L23.2576 13.5389C22.8914 14.0539 22.1267 14.0539 21.7606 13.5389L20.7206 12.0765C20.319 11.5117 19.8256 11.0182 19.2608 10.6166L17.7983 9.5767Z" fill="url(#paint6_linear_6516_91177)"/>
<defs>
<linearGradient id="paint0_linear_6516_91177" x1="10.8785" y1="30.6523" x2="30.5749" y2="16.8822" gradientUnits="userSpaceOnUse">
<stop stop-color="#C640F0"/>
<stop offset="1" stop-color="#F3CBFF"/>
</linearGradient>
<linearGradient id="paint1_linear_6516_91177" x1="15.0837" y1="23.9741" x2="23.2376" y2="10.4894" gradientUnits="userSpaceOnUse">
<stop offset="0.284714" stop-color="#E9ACFA"/>
<stop offset="0.951408" stop-color="#C640F0"/>
</linearGradient>
<linearGradient id="paint2_linear_6516_91177" x1="10.5996" y1="7.44454" x2="14.8542" y2="9.91995" gradientUnits="userSpaceOnUse">
<stop stop-color="#E9ACFA"/>
<stop offset="0.871558" stop-color="#8260F6"/>
</linearGradient>
<radialGradient id="paint3_radial_6516_91177" cx="0" cy="0" r="1" gradientUnits="userSpaceOnUse" gradientTransform="translate(4.11068 19.134) rotate(67.3313) scale(11.5974 10.1598)">
<stop stop-color="#E9ACFA"/>
<stop offset="0.658981" stop-color="#4B35F1"/>
</radialGradient>
<linearGradient id="paint4_linear_6516_91177" x1="5.63683" y1="14.3453" x2="10.8429" y2="17.1443" gradientUnits="userSpaceOnUse">
<stop stop-color="#AA6CF5"/>
<stop offset="1" stop-color="#4B35F1"/>
</linearGradient>
<linearGradient id="paint5_linear_6516_91177" x1="24.6543" y1="1.0705" x2="30.5024" y2="6.4182" gradientUnits="userSpaceOnUse">
<stop offset="0.19096" stop-color="#C886F8"/>
<stop offset="0.774317" stop-color="#4B35F1"/>
</linearGradient>
<linearGradient id="paint6_linear_6516_91177" x1="17.4121" y1="3.7312" x2="27.5098" y2="12.9649" gradientUnits="userSpaceOnUse">
<stop offset="0.217003" stop-color="#C886F8"/>
<stop offset="0.769109" stop-color="#4B35F1"/>
</linearGradient>
</defs>
</svg>
