<svg width="32" height="32" viewBox="0 0 32 32" xmlns="http://www.w3.org/2000/svg" class="rxLNL ___soczk60 f1w7gpdv fez10in fve0sb9" fill="currentColor" aria-hidden="true"><path fill-rule="evenodd" clip-rule="evenodd" d="M25.94 24.74A13.97 13.97 0 0115 30H6.25c-.97 0-1.75-.79-1.75-1.75V30v-3.5C4.5 20.7 9.2 16 15 16v-.44h10.94v9.18z" fill="url(#paint0_radial_218573_1550)"></path><path fill-rule="evenodd" clip-rule="evenodd" d="M25.94 24.74A13.97 13.97 0 0115 30H6.25c-.97 0-1.75-.79-1.75-1.75V30v-3.5C4.5 20.7 9.2 16 15 16v-.44h10.94v9.18z" fill="url(#paint1_radial_218573_1550)" fill-opacity="0.5"></path><path fill-rule="evenodd" clip-rule="evenodd" d="M15 2a14 14 0 0114 13.98v.04c0 3.48-1.28 6.67-3.4 9.12A7 7 0 0018.94 16h-3.95C9.2 16 4.5 11.3 4.5 5.5V3.75C4.5 2.78 5.28 2 6.25 2H15z" fill="url(#paint2_radial_218573_1550)"></path><path fill-rule="evenodd" clip-rule="evenodd" d="M15 2a14 14 0 0114 13.98v.04c0 3.48-1.28 6.67-3.4 9.12A7 7 0 0018.94 16h-3.95C9.2 16 4.5 11.3 4.5 5.5V3.75C4.5 2.78 5.28 2 6.25 2H15z" fill="url(#paint3_radial_218573_1550)" fill-opacity="0.5"></path><defs><radialGradient id="paint0_radial_218573_1550" cx="0" cy="0" r="1" gradientUnits="userSpaceOnUse" gradientTransform="matrix(17.71845 -14.43728 17.70107 21.724 4.5 31.02)"><stop offset="0.05" stop-color="#AD7DFF"></stop><stop offset="0.33" stop-color="#6864F6"></stop><stop offset="0.57" stop-color="#5750E2"></stop><stop offset="0.81" stop-color="#3E36B1"></stop><stop offset="1" stop-color="#261D82"></stop></radialGradient><radialGradient id="paint1_radial_218573_1550" cx="0" cy="0" r="1" gradientUnits="userSpaceOnUse" gradientTransform="rotate(-160.3 16.52 12.32) scale(26.3538)"><stop offset="0.71" stop-color="#AC80FF" stop-opacity="0"></stop><stop offset="0.92" stop-color="#BD96FF"></stop></radialGradient><radialGradient id="paint2_radial_218573_1550" cx="0" cy="0" r="1" gradientUnits="userSpaceOnUse" gradientTransform="matrix(24.49962 19.68391 -16.3419 20.33997 4.5 2.86)"><stop stop-color="#FFC470"></stop><stop offset="0.25" stop-color="#FF835C"></stop><stop offset="0.58" stop-color="#F24A9D"></stop><stop offset="0.87" stop-color="#B339F0"></stop><stop offset="1" stop-color="#C354FF"></stop></radialGradient><radialGradient id="paint3_radial_218573_1550" cx="0" cy="0" r="1" gradientUnits="userSpaceOnUse" gradientTransform="matrix(-19.97873 -14.2181 13.5963 -19.105 14.55 22.47)"><stop offset="0.71" stop-color="#FFB357" stop-opacity="0"></stop><stop offset="0.94" stop-color="#FFB357"></stop></radialGradient></defs></svg>