<svg xmlns="http://www.w3.org/2000/svg" fill="none" viewBox="0 0 24 24"><path fill="url(#prefix__a)" d="M3 7.75A2.75 2.75 0 015.75 5H21v16a2 2 0 01-2 2H6.75A3.75 3.75 0 013 19.25V7.75z"/><path fill="url(#prefix__b)" fill-opacity=".7" d="M3 7.75A2.75 2.75 0 015.75 5H21v16a2 2 0 01-2 2H6.75A3.75 3.75 0 013 19.25V7.75z"/><path fill="url(#prefix__c)" d="M3 11.25A2.75 2.75 0 015.75 8.5H14c-1.104-.004-2 .89-2 1.993v3.173c0 1.013-.82 1.834-1.833 1.834H6.75A3.75 3.75 0 003 19.25v-8z"/><path fill="url(#prefix__d)" fill-opacity=".3" d="M3 11.25A2.75 2.75 0 015.75 8.5H14c-1.104-.004-2 .89-2 1.993v3.173c0 1.013-.82 1.834-1.833 1.834H6.75A3.75 3.75 0 003 19.25v-8z"/><path fill="url(#prefix__e)" d="M3 4.75A3.75 3.75 0 016.75 1H14v7.5H6.5A3.5 3.5 0 003 12V4.75z"/><path fill="url(#prefix__f)" d="M3 4.75A3.75 3.75 0 016.75 1H14v7.5H6.5A3.5 3.5 0 003 12V4.75z"/><path fill="url(#prefix__g)" d="M3 4.75A3.75 3.75 0 016.75 1H14v7.5H6.5A3.5 3.5 0 003 12V4.75z"/><rect width="9" height="7.5" fill="url(#prefix__h)" rx="2" transform="matrix(-1 0 0 1 21 1)"/><rect width="10" height="10" y="11" fill="url(#prefix__i)" rx="2.25"/><rect width="10" height="10" y="11" fill="url(#prefix__j)" fill-opacity=".3" rx="2.25"/><path fill="#fff" d="M7.755 19H6.14l-1.015-1.912a5.967 5.967 0 01-.083-.16 5.676 5.676 0 01-.055-.141h-.016a1.402 1.402 0 01-.071.163 6.641 6.641 0 00-.08.155L3.768 19H2.245l1.828-3.004L2.37 13h1.595l.901 1.707c.037.07.067.131.092.184.028.05.056.11.084.18h.016c.04-.08.07-.145.092-.192l.1-.189.936-1.69h1.52l-1.73 2.95L7.757 19z"/><defs><radialGradient id="prefix__a" cx="0" cy="0" r="1" gradientTransform="matrix(-16.99985 -18.50015 14.3216 -13.16017 21 24.5)" gradientUnits="userSpaceOnUse"><stop offset=".065" stop-color="#379539"/><stop offset=".422" stop-color="#297C2D"/><stop offset=".703" stop-color="#15561C"/></radialGradient><radialGradient id="prefix__b" cx="0" cy="0" r="1" gradientTransform="rotate(-135 6.632 3.99) scale(10.1647 7.86883)" gradientUnits="userSpaceOnUse"><stop stop-color="#073B10"/><stop offset=".992" stop-color="#084A13" stop-opacity="0"/></radialGradient><radialGradient id="prefix__f" cx="0" cy="0" r="1" gradientTransform="matrix(-5.5115 0 0 -11.6686 13.604 5.683)" gradientUnits="userSpaceOnUse"><stop offset=".292" stop-color="#4EB43B"/><stop offset="1" stop-color="#72CC61" stop-opacity="0"/></radialGradient><radialGradient id="prefix__h" cx="0" cy="0" r="1" gradientTransform="matrix(10.14654 -8.5496 8.59193 10.19678 -1.147 8.55)" gradientUnits="userSpaceOnUse"><stop offset=".44" stop-color="#79E96D"/><stop offset="1" stop-color="#D0EB76"/></radialGradient><radialGradient id="prefix__i" cx="0" cy="0" r="1" gradientTransform="rotate(45 -13.278 5.5) scale(14.1421 40.2588)" gradientUnits="userSpaceOnUse"><stop stop-color="#20A85E"/><stop offset=".944" stop-color="#09442A"/></radialGradient><radialGradient id="prefix__j" cx="0" cy="0" r="1" gradientTransform="matrix(0 7 -8.0625 0 5 17)" gradientUnits="userSpaceOnUse"><stop offset=".58" stop-color="#33A662" stop-opacity="0"/><stop offset=".974" stop-color="#98F0B0"/></radialGradient><linearGradient id="prefix__c" x1="3" x2="11.424" y1="13.871" y2="13.871" gradientUnits="userSpaceOnUse"><stop stop-color="#52D17C"/><stop offset=".329" stop-color="#4AA647"/></linearGradient><linearGradient id="prefix__d" x1="11.25" x2="11.25" y1="8.493" y2="15.965" gradientUnits="userSpaceOnUse"><stop stop-color="#29852F"/><stop offset=".5" stop-color="#4AA647" stop-opacity="0"/></linearGradient><linearGradient id="prefix__e" x1="3.405" x2="13.569" y1="9.916" y2="1.101" gradientUnits="userSpaceOnUse"><stop stop-color="#66D052"/><stop offset="1" stop-color="#85E972"/></linearGradient><linearGradient id="prefix__g" x1="7.959" x2="3" y1="6.129" y2="6.129" gradientUnits="userSpaceOnUse"><stop offset=".184" stop-color="#C0E075" stop-opacity="0"/><stop offset="1" stop-color="#D1EB95"/></linearGradient></defs></svg>