<svg width="32" height="32" viewBox="0 0 32 32" xmlns="http://www.w3.org/2000/svg" class="rxLNL ___soczk60 f1w7gpdv fez10in fve0sb9" fill="currentColor" aria-hidden="true"><path d="M5 11.5A3.5 3.5 0 018.5 8H27v18.5a2.5 2.5 0 01-2.5 2.5H9.75A4.75 4.75 0 015 24.25V11.5z" fill="url(#paint0_radial_79311_35689)"></path><path d="M5 11.5A3.5 3.5 0 018.5 8H27v18.5a2.5 2.5 0 01-2.5 2.5H9.75A4.75 4.75 0 015 24.25V11.5z" fill="url(#paint1_radial_79311_35689)" fill-opacity="0.7"></path><path d="M5 15.5A3.5 3.5 0 018.5 12h11-1a2.5 2.5 0 00-2.5 2.5v4a2.5 2.5 0 01-2.5 2.5h-4A4.5 4.5 0 005 25.5v-10z" fill="url(#paint2_linear_79311_35689)"></path><path d="M5 15.5A3.5 3.5 0 018.5 12h11-1a2.5 2.5 0 00-2.5 2.5v4a2.5 2.5 0 01-2.5 2.5h-4A4.5 4.5 0 005 25.5v-10z" fill="url(#paint3_linear_79311_35689)" fill-opacity="0.3"></path><path d="M5 7.75A4.75 4.75 0 019.75 3H19v9H9.75A4.75 4.75 0 005 16.75v-9z" fill="url(#paint4_linear_79311_35689)"></path><path d="M5 7.75A4.75 4.75 0 019.75 3H19v9H9.75A4.75 4.75 0 005 16.75v-9z" fill="url(#paint5_linear_79311_35689)"></path><path d="M5 7.75A4.75 4.75 0 019.75 3H19v9H9.75A4.75 4.75 0 005 16.75v-9z" fill="url(#paint6_linear_79311_35689)"></path><rect width="11" height="9" rx="2.5" transform="matrix(-1 0 0 1 27 3)" fill="url(#paint7_radial_79311_35689)"></rect><path d="M2 16.75A2.75 2.75 0 014.75 14h6.5A2.75 2.75 0 0114 16.75v6.5A2.75 2.75 0 0111.25 26h-6.5A2.75 2.75 0 012 23.25v-6.5z" fill="url(#paint8_radial_79311_35689)"></path><path d="M2 16.75A2.75 2.75 0 014.75 14h6.5A2.75 2.75 0 0114 16.75v6.5A2.75 2.75 0 0111.25 26h-6.5A2.75 2.75 0 012 23.25v-6.5z" fill="url(#paint9_radial_79311_35689)" fill-opacity="0.3"></path><path d="M11 23.25H9.23l-1.1-2.07a6.23 6.23 0 01-.15-.33h-.02l-.08.18-.08.17-1.15 2.05H5.01L6.99 20l-1.85-3.25h1.74l.97 1.85a6.07 6.07 0 01.2.4h.01a23.62 23.62 0 00.21-.42l1.02-1.83h1.65l-1.88 3.2 1.93 3.3z" fill="#fff"></path><defs><radialGradient id="paint0_radial_79311_35689" cx="0" cy="0" r="1" gradientTransform="scale(-27.8156 -26.5513) rotate(45 .91 -1.75)" gradientUnits="userSpaceOnUse"><stop offset="0.06" stop-color="#379539"></stop><stop offset="0.45" stop-color="#297C2D"></stop><stop offset="0.7" stop-color="#15561C"></stop></radialGradient><radialGradient id="paint1_radial_79311_35689" cx="0" cy="0" r="1" gradientTransform="scale(-12.42347 -11.85877) rotate(45 1.11 -1.8)" gradientUnits="userSpaceOnUse"><stop stop-color="#073B10"></stop><stop offset="0.99" stop-color="#084A13" stop-opacity="0"></stop></radialGradient><radialGradient id="paint7_radial_79311_35689" cx="0" cy="0" r="1" gradientTransform="matrix(12.4014 -10.2595 -10.6103 -11.9914 -1.4 10.26)" gradientUnits="userSpaceOnUse"><stop offset="0.44" stop-color="#79E96D"></stop><stop offset="1" stop-color="#D0EB76"></stop></radialGradient><radialGradient id="paint8_radial_79311_35689" cx="0" cy="0" r="1" gradientUnits="userSpaceOnUse" gradientTransform="rotate(45 -15.9 9.41) scale(16.9706)"><stop stop-color="#20A85E"></stop><stop offset="0.46" stop-color="#15824A"></stop><stop offset="0.94" stop-color="#09442A"></stop></radialGradient><radialGradient id="paint9_radial_79311_35689" cx="0" cy="0" r="1" gradientUnits="userSpaceOnUse" gradientTransform="matrix(0 9 -9 0 8 21.2)"><stop offset="0.58" stop-color="#33A662" stop-opacity="0"></stop><stop offset="0.97" stop-color="#98F0B0"></stop></radialGradient><linearGradient id="paint2_linear_79311_35689" x1="5" y1="18.75" x2="16.1" y2="18.75" gradientUnits="userSpaceOnUse"><stop stop-color="#52D17C"></stop><stop offset="0.33" stop-color="#4AA647"></stop></linearGradient><linearGradient id="paint3_linear_79311_35689" x1="15.88" y1="12" x2="15.88" y2="21.38" gradientUnits="userSpaceOnUse"><stop stop-color="#29852F"></stop><stop offset="0.5" stop-color="#4AA647" stop-opacity="0"></stop></linearGradient><linearGradient id="paint4_linear_79311_35689" x1="5.52" y1="13.81" x2="17.91" y2="2.52" gradientUnits="userSpaceOnUse"><stop stop-color="#66D052"></stop><stop offset="1" stop-color="#85E972"></stop></linearGradient><linearGradient id="paint5_linear_79311_35689" x1="19" y1="7.55" x2="9.21" y2="7.55" gradientUnits="userSpaceOnUse"><stop offset="0.21" stop-color="#4EB43B"></stop><stop offset="0.83" stop-color="#72CC61" stop-opacity="0"></stop></linearGradient><linearGradient id="paint6_linear_79311_35689" x1="11.31" y1="9.22" x2="5" y2="9.22" gradientUnits="userSpaceOnUse"><stop offset="0.18" stop-color="#C0E075" stop-opacity="0"></stop><stop offset="1" stop-color="#D1EB95"></stop></linearGradient></defs></svg>