<svg width="32" height="32" viewBox="0 0 32 32" xmlns="http://www.w3.org/2000/svg" class="rxLNL ___soczk60 f1w7gpdv fez10in fve0sb9" fill="currentColor" aria-hidden="true"><path d="M5 13.5c0-1.1.9-2 2-2h20v15.17A2.33 2.33 0 0124.67 29H9.69A4.7 4.7 0 015 24.3V13.5z" fill="url(#paint0_radial_79311_35644)"></path><path d="M5 13.5c0-1.1.9-2 2-2h20v15.17A2.33 2.33 0 0124.67 29H9.69A4.7 4.7 0 015 24.3V13.5z" fill="url(#paint1_radial_79311_35644)" fill-opacity="0.8"></path><path d="M5 7.7C5 5.1 7.1 3 9.7 3h14.75C25.86 3 27 4.14 27 5.55v7.9c0 1.41-1.14 2.55-2.55 2.55H9.7A4.7 4.7 0 005 20.7v.8V7.7z" fill="url(#paint2_linear_79311_35644)"></path><path d="M5 7.7C5 5.1 7.1 3 9.7 3h14.75C25.86 3 27 4.14 27 5.55v7.9c0 1.41-1.14 2.55-2.55 2.55H9.7A4.7 4.7 0 005 20.7v.8V7.7z" fill="url(#paint3_linear_79311_35644)"></path><path d="M20 13a4 4 0 100-8 4 4 0 000 8z" fill="url(#paint4_linear_79311_35644)"></path><path d="M20 11a2 2 0 100-4 2 2 0 000 4z" fill="url(#paint5_linear_79311_35644)"></path><path d="M22.36 20h-4.72a.64.64 0 00-.64.64v4.72c0 .36.28.64.64.64h4.72c.36 0 .64-.28.64-.64v-4.72a.64.64 0 00-.64-.64z" fill="url(#paint6_linear_79311_35644)"></path><path d="M2 16.75A2.75 2.75 0 014.75 14h6.5A2.75 2.75 0 0114 16.75v6.5A2.75 2.75 0 0111.25 26h-6.5A2.75 2.75 0 012 23.25v-6.5z" fill="url(#paint7_radial_79311_35644)"></path><path d="M2 16.75A2.75 2.75 0 014.75 14h6.5A2.75 2.75 0 0114 16.75v6.5A2.75 2.75 0 0111.25 26h-6.5A2.75 2.75 0 012 23.25v-6.5z" fill="url(#paint8_radial_79311_35644)" fill-opacity="0.6"></path><path d="M9.87 17.96H7.6v1.57h2.1v1.2h-2.1v2.52H6.13v-6.5h3.74v1.21z" fill="#fff"></path><defs><linearGradient id="paint2_linear_79311_35644" x1="5.5" y1="14.22" x2="26.8" y2="2.49" gradientUnits="userSpaceOnUse"><stop offset="0.23" stop-color="#15B4D5"></stop><stop offset="1" stop-color="#43E5CA"></stop></linearGradient><linearGradient id="paint3_linear_79311_35644" x1="11.06" y1="9.45" x2="5" y2="9.45" gradientUnits="userSpaceOnUse"><stop offset="0.18" stop-color="#29CBDC" stop-opacity="0"></stop><stop offset="1" stop-color="#36DFF1"></stop></linearGradient><linearGradient id="paint4_linear_79311_35644" x1="17.14" y1="5.57" x2="22.29" y2="13" gradientUnits="userSpaceOnUse"><stop stop-color="#119FC5"></stop><stop offset="1" stop-color="#22918B"></stop></linearGradient><linearGradient id="paint5_linear_79311_35644" x1="18.57" y1="7.29" x2="21.14" y2="11" gradientUnits="userSpaceOnUse"><stop stop-color="#06517B"></stop><stop offset="1" stop-color="#1A7F7C"></stop></linearGradient><linearGradient id="paint6_linear_79311_35644" x1="17.86" y1="20.43" x2="21.71" y2="26" gradientUnits="userSpaceOnUse"><stop stop-color="#119FC5"></stop><stop offset="1" stop-color="#20AC9D"></stop></linearGradient><radialGradient id="paint0_radial_79311_35644" cx="0" cy="0" r="1" gradientTransform="matrix(-13.4444 -23.75 20.4098 -12.0847 22.11 32.13)" gradientUnits="userSpaceOnUse"><stop offset="0.01" stop-color="#1A7F7C"></stop><stop offset="0.45" stop-color="#14717C"></stop><stop offset="0.8" stop-color="#08567B"></stop></radialGradient><radialGradient id="paint1_radial_79311_35644" cx="0" cy="0" r="1" gradientTransform="matrix(-8.78472 -8.98437 9.03571 -8.73481 11.72 14.63)" gradientUnits="userSpaceOnUse"><stop stop-color="#06517B"></stop><stop offset="0.99" stop-color="#06517B" stop-opacity="0"></stop></radialGradient><radialGradient id="paint7_radial_79311_35644" cx="0" cy="0" r="1" gradientUnits="userSpaceOnUse" gradientTransform="rotate(45 -15.9 9.41) scale(16.9706)"><stop offset="0.06" stop-color="#009BBC"></stop><stop offset="0.59" stop-color="#01657D"></stop><stop offset="0.94" stop-color="#014354"></stop></radialGradient><radialGradient id="paint8_radial_79311_35644" cx="0" cy="0" r="1" gradientUnits="userSpaceOnUse" gradientTransform="matrix(0 9.42857 -9.42857 0 8 21.71)"><stop offset="0.57" stop-color="#1E8581" stop-opacity="0"></stop><stop offset="0.97" stop-color="#1ECBE6"></stop></radialGradient></defs></svg>