<svg width="32" height="32" viewBox="0 0 32 32" xmlns="http://www.w3.org/2000/svg" class="rxLNL ___soczk60 f1w7gpdv fez10in fve0sb9" fill="currentColor" aria-hidden="true"><path d="M16 2A14 14 0 002 16v14h14a14 14 0 100-28zm0 9.1a4.9 4.9 0 110 9.8h-4.9V16c0-2.7 2.2-4.9 4.9-4.9z" fill="url(#paint0_linear_1_44)"></path><path d="M30 16a14 14 0 01-14 14H2a9.1 9.1 0 019.1-9.1H16c2.7 0 4.9-2.2 4.9-4.9H30z" fill="url(#paint1_linear_1_44)"></path><path d="M30 16a14 14 0 01-14 14H2a9.1 9.1 0 019.1-9.1H16c2.7 0 4.9-2.2 4.9-4.9H30z" fill="url(#paint2_radial_1_44)" fill-opacity="0.56"></path><path d="M30 16a14 14 0 01-14 14H2a9.1 9.1 0 019.1-9.1H16c2.7 0 4.9-2.2 4.9-4.9H30z" fill="url(#paint3_radial_1_44)" fill-opacity="0.1"></path><path d="M16 2A14 14 0 002 16v14a9.1 9.1 0 009.1-9.07l.03-.03h-.03V16a4.9 4.9 0 018.4-3.44l6.44-6.42A13.96 13.96 0 0016 2z" fill="url(#paint4_linear_1_44)"></path><path d="M16 2A14 14 0 002 16v14a9.1 9.1 0 009.1-9.07l.03-.03h-.03V16a4.9 4.9 0 018.4-3.44l6.44-6.42A13.96 13.96 0 0016 2z" fill="url(#paint5_radial_1_44)"></path><defs><radialGradient id="paint2_radial_1_44" cx="0" cy="0" r="1" gradientUnits="userSpaceOnUse" gradientTransform="matrix(5.6 3.85 -6.76645 9.84211 6.9 24.05)"><stop></stop><stop offset="0.7" stop-opacity="0"></stop></radialGradient><radialGradient id="paint3_radial_1_44" cx="0" cy="0" r="1" gradientUnits="userSpaceOnUse" gradientTransform="matrix(10.36 6.44 -11.31844 18.2079 5.22 23)"><stop offset="0.33"></stop><stop offset="0.6" stop-opacity="0"></stop></radialGradient><radialGradient id="paint5_radial_1_44" cx="0" cy="0" r="1" gradientUnits="userSpaceOnUse" gradientTransform="matrix(18.75996 -3.22 8.46583 49.32263 -.38 10.68)"><stop stop-color="#6D05E8"></stop><stop offset="1" stop-color="#6D05E8" stop-opacity="0"></stop></radialGradient><linearGradient id="paint0_linear_1_44" x1="19.08" y1="11.94" x2="14.46" y2="30.84" gradientUnits="userSpaceOnUse"><stop stop-color="#9237E3"></stop><stop offset="1" stop-color="#48E6F3"></stop></linearGradient><linearGradient id="paint1_linear_1_44" x1="11.1" y1="27.9" x2="23.42" y2="25.1" gradientUnits="userSpaceOnUse"><stop stop-color="#51E6FF"></stop><stop offset="1" stop-color="#71D4FF" stop-opacity="0"></stop></linearGradient><linearGradient id="paint4_linear_1_44" x1="7.74" y1="16.98" x2="14.88" y2="6.9" gradientUnits="userSpaceOnUse"><stop stop-color="#6D05E8"></stop><stop offset="1" stop-color="#AB5ADD" stop-opacity="0"></stop></linearGradient></defs></svg>