<svg width="32" height="32" viewBox="0 0 32 32" xmlns="http://www.w3.org/2000/svg" class="rxLNL ___soczk60 f1w7gpdv fez10in fve0sb9" fill="currentColor" aria-hidden="true"><path d="M22.93 4.97A2.92 2.92 0 0020.17 3h-1.4a2.92 2.92 0 00-2.87 2.4l-1.45 8.08.57-1.9a2.92 2.92 0 012.8-2.08h5.24l2.25 1.3 2.16-1.3h-.91c-1.25 0-2.36-.8-2.76-1.97l-.87-2.56z" fill="url(#paint0_radial_79345_26950)"></path><path d="M9.4 27.01A2.92 2.92 0 0012.16 29h2.41c1.6 0 2.91-1.3 2.92-2.9l.04-7.61-.56 1.91a2.92 2.92 0 01-2.8 2.1H8.9l-1.93-1.48-2.08 1.48h.9c1.25 0 2.36.8 2.76 1.99L9.4 27z" fill="url(#paint1_radial_79345_26950)"></path><path d="M19.75 3H8.81c-3.12 0-5 4.09-6.25 8.18C1.08 16.02-.86 22.5 4.75 22.5h4.91c1.3 0 2.45-.86 2.8-2.1.82-2.82 2.29-7.9 3.44-11.75.58-1.92 1.05-3.57 1.79-4.6A2.47 2.47 0 0119.75 3z" fill="url(#paint2_radial_79345_26950)"></path><path d="M19.75 3H8.81c-3.12 0-5 4.09-6.25 8.18C1.08 16.02-.86 22.5 4.75 22.5h4.91c1.3 0 2.45-.86 2.8-2.1.82-2.82 2.29-7.9 3.44-11.75.58-1.92 1.05-3.57 1.79-4.6A2.47 2.47 0 0119.75 3z" fill="url(#paint3_linear_79345_26950)"></path><path d="M19.75 3H8.81c-3.12 0-5 4.09-6.25 8.18C1.08 16.02-.86 22.5 4.75 22.5h4.91c1.3 0 2.45-.86 2.8-2.1.82-2.82 2.29-7.9 3.44-11.75.58-1.92 1.05-3.57 1.79-4.6A2.47 2.47 0 0119.75 3z" fill="url(#paint4_linear_79345_26950)"></path><path d="M12.25 29h10.94c3.12 0 5-4.09 6.25-8.18 1.48-4.84 3.41-11.32-2.2-11.32h-4.9c-1.3 0-2.45.86-2.8 2.1-.82 2.82-2.3 7.9-3.44 11.75-.58 1.92-1.06 3.57-1.8 4.6A2.47 2.47 0 0112.26 29z" fill="url(#paint5_radial_79345_26950)"></path><path d="M12.25 29h10.94c3.12 0 5-4.09 6.25-8.18 1.48-4.84 3.41-11.32-2.2-11.32h-4.9c-1.3 0-2.45.86-2.8 2.1-.82 2.82-2.3 7.9-3.44 11.75-.58 1.92-1.06 3.57-1.8 4.6A2.47 2.47 0 0112.26 29z" fill="url(#paint6_linear_79345_26950)"></path><defs><radialGradient id="paint0_radial_79345_26950" cx="0" cy="0" r="1" gradientTransform="matrix(-7.37821 -8.55084 -7.96607 7.17216 25.57 13.55)" gradientUnits="userSpaceOnUse"><stop offset="0.1" stop-color="#00AEFF"></stop><stop offset="0.77" stop-color="#2253CE"></stop><stop offset="1" stop-color="#0736C4"></stop></radialGradient><radialGradient id="paint1_radial_79345_26950" cx="0" cy="0" r="1" gradientTransform="matrix(6.61516 7.92888 7.80904 -6.47171 7.18 21.95)" gradientUnits="userSpaceOnUse"><stop stop-color="#FFB657"></stop><stop offset="0.63" stop-color="#FF5F3D"></stop><stop offset="0.92" stop-color="#C02B3C"></stop></radialGradient><radialGradient id="paint2_radial_79345_26950" cx="0" cy="0" r="1" gradientTransform="matrix(-.93757 -24.1374 24.3747 -.9266 9.44 26.2)" gradientUnits="userSpaceOnUse"><stop offset="0.07" stop-color="#FFC800"></stop><stop offset="0.47" stop-color="#52B471"></stop><stop offset="0.79" stop-color="#0D91E1"></stop></radialGradient><radialGradient id="paint5_radial_79345_26950" cx="0" cy="0" r="1" gradientTransform="matrix(-8.64067 24.4636 -24.7005 -8.55782 27.81 7.59)" gradientUnits="userSpaceOnUse"><stop offset="0.07" stop-color="#8C48FF"></stop><stop offset="0.5" stop-color="#F2598A"></stop><stop offset="0.9" stop-color="#FFB152"></stop></radialGradient><linearGradient id="paint3_linear_79345_26950" x1="9.52" y1="3" x2="10.36" y2="22.5" gradientUnits="userSpaceOnUse"><stop stop-color="#3DCBFF"></stop><stop offset="0.25" stop-color="#0588F7" stop-opacity="0"></stop></linearGradient><linearGradient id="paint4_linear_79345_26950" x1="8.5" y1="25.28" x2="8.5" y2="15.07" gradientUnits="userSpaceOnUse"><stop offset="0.32" stop-color="#FFC800"></stop><stop offset="0.97" stop-color="#9DBD42" stop-opacity="0"></stop></linearGradient><linearGradient id="paint6_linear_79345_26950" x1="28.67" y1="8.3" x2="28.66" y2="13.62" gradientUnits="userSpaceOnUse"><stop offset="0.06" stop-color="#F8ADFA"></stop><stop offset="0.71" stop-color="#A86EDD" stop-opacity="0"></stop></linearGradient></defs></svg>