<svg xmlns="http://www.w3.org/2000/svg" viewBox="0 0 32 32" fill="none">
  <path d="M13.2589 1.31689L13.1016 1.41203C13.1016 1.41203 15.8076 1.59836 16.6999 1.59836L17.3999 6.89877L13.9 10.3988L10.4 12.8315V15.6368C10.4 17.5961 11.424 19.4129 13.1001 20.4275L16.7847 22.6578L8.99998 27.1989H7.49852L4.70015 25.505C3.024 24.4904 2 22.6736 2 20.7143V11.2811C2 9.32122 3.02465 7.50392 4.70165 6.48954L13.1016 1.40859C13.1537 1.37711 13.2061 1.34654 13.2589 1.31689Z" fill="url(#paint0_radial_2253_2948)"/>
  <path d="M13.2589 1.31689L13.1016 1.41203C13.1016 1.41203 15.8076 1.59836 16.6999 1.59836L17.3999 6.89877L13.9 10.3988L10.4 12.8315V15.6368C10.4 17.5961 11.424 19.4129 13.1001 20.4275L16.7847 22.6578L8.99998 27.1989H7.49852L4.70015 25.505C3.024 24.4904 2 22.6736 2 20.7143V11.2811C2 9.32122 3.02465 7.50392 4.70165 6.48954L13.1016 1.40859C13.1537 1.37711 13.2061 1.34654 13.2589 1.31689Z" fill="url(#paint1_linear_2253_2948)"/>
  <path d="M21.5996 12.499V15.6352C21.5996 17.5945 20.5756 19.4113 18.8994 20.4259L10.4995 25.5105C8.78115 26.5506 6.64314 26.5881 4.89453 25.6231L13.0998 30.5897C14.8824 31.6688 17.1168 31.6688 18.8994 30.5898L27.2994 25.5052C28.9755 24.4906 29.9995 22.6738 29.9995 20.7145V18.449L29.2995 17.399L21.5996 12.499Z" fill="url(#paint2_radial_2253_2948)"/>
  <path d="M21.5996 12.499V15.6352C21.5996 17.5945 20.5756 19.4113 18.8994 20.4259L10.4995 25.5105C8.78115 26.5506 6.64314 26.5881 4.89453 25.6231L13.0998 30.5897C14.8824 31.6688 17.1168 31.6688 18.8994 30.5898L27.2994 25.5052C28.9755 24.4906 29.9995 22.6738 29.9995 20.7145V18.449L29.2995 17.399L21.5996 12.499Z" fill="url(#paint3_linear_2253_2948)"/>
  <path d="M27.2987 6.48991L18.8987 1.40896C17.172 0.364517 15.0219 0.332162 13.2689 1.3119L13.102 1.41283C11.425 2.42721 10.4004 4.24451 10.4004 6.20444V12.8431L13.102 11.209C14.8839 10.1311 17.1168 10.1311 18.8987 11.209L27.2987 16.2899C28.9232 17.2726 29.9356 19.0087 29.9973 20.8981C29.9993 20.8371 30.0003 20.776 30.0003 20.7147V11.2815C30.0003 9.3216 28.9757 7.50429 27.2987 6.48991Z" fill="url(#paint4_radial_2253_2948)"/>
  <path d="M27.2987 6.48991L18.8987 1.40896C17.172 0.364517 15.0219 0.332162 13.2689 1.3119L13.102 1.41283C11.425 2.42721 10.4004 4.24451 10.4004 6.20444V12.8431L13.102 11.209C14.8839 10.1311 17.1168 10.1311 18.8987 11.209L27.2987 16.2899C28.9232 17.2726 29.9356 19.0087 29.9973 20.8981C29.9993 20.8371 30.0003 20.776 30.0003 20.7147V11.2815C30.0003 9.3216 28.9757 7.50429 27.2987 6.48991Z" fill="url(#paint5_linear_2253_2948)"/>
  <defs>
    <radialGradient id="paint0_radial_2253_2948" cx="0" cy="0" r="1" gradientUnits="userSpaceOnUse" gradientTransform="translate(14.6435 7.31696) rotate(113.009) scale(29.9014 37.7328)">
      <stop offset="0.0598494" stop-color="#AE7FE2"/>
      <stop offset="1" stop-color="#0078D4"/>
    </radialGradient>
    <linearGradient id="paint1_linear_2253_2948" x1="13.5919" y1="24.7401" x2="11.3784" y2="19.4007" gradientUnits="userSpaceOnUse">
      <stop stop-color="#114A8B"/>
      <stop offset="1" stop-color="#0078D4" stop-opacity="0"/>
    </linearGradient>
    <radialGradient id="paint2_radial_2253_2948" cx="0" cy="0" r="1" gradientUnits="userSpaceOnUse" gradientTransform="translate(8.77226 25.5574) rotate(-18.5286) scale(20.0923 15.3031)">
      <stop offset="0.110651" stop-color="#D59DFF"/>
      <stop offset="1" stop-color="#5E438F"/>
    </radialGradient>
    <linearGradient id="paint3_linear_2253_2948" x1="27.4493" y1="16.9628" x2="23.8783" y2="22.0831" gradientUnits="userSpaceOnUse">
      <stop stop-color="#493474"/>
      <stop offset="1" stop-color="#8C66BA" stop-opacity="0"/>
    </linearGradient>
    <radialGradient id="paint4_radial_2253_2948" cx="0" cy="0" r="1" gradientUnits="userSpaceOnUse" gradientTransform="translate(30.8671 16.3721) rotate(-166.209) scale(34.9402 25.5665)">
      <stop offset="0.0960063" stop-color="#50E6FF"/>
      <stop offset="1" stop-color="#436DCD"/>
    </radialGradient>
    <linearGradient id="paint5_linear_2253_2948" x1="11.1279" y1="3.48567" x2="17.3506" y2="3.75622" gradientUnits="userSpaceOnUse">
      <stop stop-color="#2D3F80"/>
      <stop offset="1" stop-color="#436DCD" stop-opacity="0"/>
    </linearGradient>
  </defs>
</svg>