<svg width="20" height="20" viewBox="0 0 20 20" fill="none" xmlns="http://www.w3.org/2000/svg" aria-hidden="true"><path d="M3 4.5C3 3.67157 3.67157 3 4.5 3H8.5C9.32843 3 10 3.67157 10 4.5V10H3V4.5Z" fill="url(#paint0_linear_15124_12110)"></path><path d="M3 10H10V17H4.5C3.67157 17 3 16.3284 3 15.5V10Z" fill="url(#paint1_linear_15124_12110)"></path><path d="M3 10H10V17H4.5C3.67157 17 3 16.3284 3 15.5V10Z" fill="url(#paint2_linear_15124_12110)" fill-opacity="0.8"></path><path d="M10 10H15.5C16.3284 10 17 10.6716 17 11.5V15.5C17 16.3284 16.3284 17 15.5 17H10V10Z" fill="url(#paint3_linear_15124_12110)"></path><path d="M10 10H15.5C16.3284 10 17 10.6716 17 11.5V15.5C17 16.3284 16.3284 17 15.5 17H10V10Z" fill="url(#paint4_linear_15124_12110)" fill-opacity="0.6"></path><path d="M12.7319 2.44089C13.3177 1.8551 14.2674 1.8551 14.8532 2.44089L17.5455 5.13314C18.1313 5.71893 18.1313 6.66868 17.5455 7.25446L14.8532 9.94672C14.2674 10.5325 13.3177 10.5325 12.7319 9.94672L10.0397 7.25446C9.45387 6.66868 9.45386 5.71893 10.0397 5.13314L12.7319 2.44089Z" fill="url(#paint5_linear_15124_12110)"></path><path d="M12.7319 2.44089C13.3177 1.8551 14.2674 1.8551 14.8532 2.44089L17.5455 5.13314C18.1313 5.71893 18.1313 6.66868 17.5455 7.25446L14.8532 9.94672C14.2674 10.5325 13.3177 10.5325 12.7319 9.94672L10.0397 7.25446C9.45387 6.66868 9.45386 5.71893 10.0397 5.13314L12.7319 2.44089Z" fill="url(#paint6_linear_15124_12110)"></path><defs><linearGradient id="paint0_linear_15124_12110" x1="3.36842" y1="2.61111" x2="19.1497" y2="22.7945" gradientUnits="userSpaceOnUse"><stop offset="0.0831445" stop-color="#FFC470"></stop><stop offset="0.279637" stop-color="#FF835C"></stop><stop offset="0.584326" stop-color="#F24A9D"></stop><stop offset="0.871234" stop-color="#B339F0"></stop><stop offset="1" stop-color="#C354FF"></stop></linearGradient><linearGradient id="paint1_linear_15124_12110" x1="2.63158" y1="4.10526" x2="16.1839" y2="16.2672" gradientUnits="userSpaceOnUse"><stop stop-color="#FFC470"></stop><stop offset="0.251092" stop-color="#FF835C"></stop><stop offset="0.518843" stop-color="#F24A9D"></stop><stop offset="0.871234" stop-color="#B339F0"></stop><stop offset="1" stop-color="#C354FF"></stop></linearGradient><linearGradient id="paint2_linear_15124_12110" x1="6.5" y1="18.1181" x2="6.5" y2="9.02778" gradientUnits="userSpaceOnUse"><stop stop-color="#FEA567" stop-opacity="0"></stop><stop offset="0.920994" stop-color="#CA2134"></stop></linearGradient><linearGradient id="paint3_linear_15124_12110" x1="2.61111" y1="3.73684" x2="17.3258" y2="16.9404" gradientUnits="userSpaceOnUse"><stop stop-color="#FFC470"></stop><stop offset="0.676809" stop-color="#CF40CA"></stop><stop offset="0.954587" stop-color="#B339F0"></stop></linearGradient><linearGradient id="paint4_linear_15124_12110" x1="21.5694" y1="13.5" x2="10" y2="13.5" gradientUnits="userSpaceOnUse"><stop offset="0.415966" stop-color="#A931D8" stop-opacity="0"></stop><stop offset="1" stop-color="#82027A"></stop></linearGradient><linearGradient id="paint5_linear_15124_12110" x1="10.0121" y1="2.55066" x2="18.6497" y2="10.9557" gradientUnits="userSpaceOnUse"><stop offset="0.194813" stop-color="#8B52F4"></stop><stop offset="0.691098" stop-color="#6D37CD"></stop></linearGradient><linearGradient id="paint6_linear_15124_12110" x1="14.2203" y1="3.85905" x2="5.31376" y2="3.85905" gradientUnits="userSpaceOnUse"><stop stop-color="#F24A9D" stop-opacity="0"></stop><stop offset="1" stop-color="#F24A9D"></stop></linearGradient></defs></svg>