<svg width="32" height="32" viewBox="0 0 32 32" xmlns="http://www.w3.org/2000/svg" class="rxLNL ___soczk60 f1w7gpdv fez10in fve0sb9" fill="currentColor" aria-hidden="true"><path d="M9.3 9.1c-4.6 0-8.02 3.75-8.28 7.94.16.9.68 2.68 1.5 2.59 1.03-.12 3.62 0 5.83-4 1.61-2.92 4.93-6.53.94-6.53z" fill="url(#paint0_radial_79311_35603)"></path><path d="M8.23 10.66C6.69 13.1 4.61 16.6 3.91 17.7a1.57 1.57 0 01-2.85-1.12l-.04.46a8.4 8.4 0 008.38 8.93c5.3 0 17.96-6.61 16.67-13.23a10.05 10.05 0 00-9.44-6.7 9.8 9.8 0 00-8.4 4.62z" fill="url(#paint1_radial_79311_35603)"></path><path d="M8.23 10.66C6.69 13.1 4.61 16.6 3.91 17.7a1.57 1.57 0 01-2.85-1.12l-.04.46a8.4 8.4 0 008.38 8.93c5.3 0 17.96-6.61 16.67-13.23a10.05 10.05 0 00-9.44-6.7 9.8 9.8 0 00-8.4 4.62z" fill="url(#paint2_radial_79311_35603)" fill-opacity="0.4"></path><path d="M8.23 10.66C6.69 13.1 4.61 16.6 3.91 17.7a1.57 1.57 0 01-2.85-1.12l-.04.46a8.4 8.4 0 008.38 8.93c5.3 0 17.96-6.61 16.67-13.23a10.05 10.05 0 00-9.44-6.7 9.8 9.8 0 00-8.4 4.62z" fill="url(#paint3_radial_79311_35603)"></path><path d="M8.23 10.66C6.69 13.1 4.61 16.6 3.91 17.7a1.57 1.57 0 01-2.85-1.12l-.04.46a8.4 8.4 0 008.38 8.93c5.3 0 17.96-6.61 16.67-13.23a10.05 10.05 0 00-9.44-6.7 9.8 9.8 0 00-8.4 4.62z" fill="url(#paint4_radial_79311_35603)" fill-opacity="0.6"></path><path d="M8.23 10.66C6.69 13.1 4.61 16.6 3.91 17.7a1.57 1.57 0 01-2.85-1.12l-.04.46a8.4 8.4 0 008.38 8.93c5.3 0 17.96-6.61 16.67-13.23a10.05 10.05 0 00-9.44-6.7 9.8 9.8 0 00-8.4 4.62z" fill="url(#paint5_radial_79311_35603)" fill-opacity="0.9"></path><path d="M9.32 25.97l14.81.03a6.9 6.9 0 000-13.78c-3.84 0-6.05 2.87-7.7 6-1.95 3.68-4.44 7.7-7.11 7.75z" fill="url(#paint6_linear_79311_35603)"></path><path d="M9.32 25.97l14.81.03a6.9 6.9 0 000-13.78c-3.84 0-6.05 2.87-7.7 6-1.95 3.68-4.44 7.7-7.11 7.75z" fill="url(#paint7_radial_79311_35603)" fill-opacity="0.4"></path><path d="M9.32 25.97l14.81.03a6.9 6.9 0 000-13.78c-3.84 0-6.05 2.87-7.7 6-1.95 3.68-4.44 7.7-7.11 7.75z" fill="url(#paint8_radial_79311_35603)" fill-opacity="0.9"></path><defs><radialGradient id="paint0_radial_79311_35603" cx="0" cy="0" r="1" gradientTransform="matrix(6.05863 7.25975 -10.1194 12.3526 1.59 10.2)" gradientUnits="userSpaceOnUse"><stop stop-color="#4894FE"></stop><stop offset="0.7" stop-color="#0934B3"></stop></radialGradient><radialGradient id="paint1_radial_79311_35603" cx="0" cy="0" r="1" gradientTransform="matrix(-26.6342 30.7229 -23.4745 -18.9187 26.97 -.7)" gradientUnits="userSpaceOnUse"><stop offset="0.17" stop-color="#23C0FE"></stop><stop offset="0.53" stop-color="#1C91FF"></stop></radialGradient><radialGradient id="paint2_radial_79311_35603" cx="0" cy="0" r="1" gradientTransform="matrix(-6.33129 -5.31528 -11.8431 14.7663 7.72 10.73)" gradientUnits="userSpaceOnUse"><stop stop-color="#fff"></stop><stop offset="0.66" stop-color="#ADC0FF" stop-opacity="0"></stop></radialGradient><radialGradient id="paint3_radial_79311_35603" cx="0" cy="0" r="1" gradientTransform="matrix(-7.11293 -6.01877 9.14061 -10.8028 16.71 20.5)" gradientUnits="userSpaceOnUse"><stop stop-color="#033ACC"></stop><stop offset="1" stop-color="#368EFF" stop-opacity="0"></stop></radialGradient><radialGradient id="paint4_radial_79311_35603" cx="0" cy="0" r="1" gradientTransform="matrix(8.12906 18.7598 -20.2526 8.77435 7.17 5.42)" gradientUnits="userSpaceOnUse"><stop offset="0.59" stop-color="#3464E3" stop-opacity="0"></stop><stop offset="1" stop-color="#033ACC"></stop></radialGradient><radialGradient id="paint5_radial_79311_35603" cx="0" cy="0" r="1" gradientTransform="matrix(-21.2655 21.266 33.3159 33.3166 26.64 1.43)" gradientUnits="userSpaceOnUse"><stop stop-color="#4BFDE8"></stop><stop offset="0.54" stop-color="#4BFDE8" stop-opacity="0"></stop></radialGradient><radialGradient id="paint7_radial_79311_35603" cx="0" cy="0" r="1" gradientTransform="matrix(12.6678 5.02394 -16.0514 21.3963 13.06 13.84)" gradientUnits="userSpaceOnUse"><stop stop-color="#fff"></stop><stop offset="0.79" stop-color="#fff" stop-opacity="0"></stop></radialGradient><radialGradient id="paint8_radial_79311_35603" cx="0" cy="0" r="1" gradientTransform="matrix(-14.1522 12.1976 -16.7761 -10.2898 30.58 11.15)" gradientUnits="userSpaceOnUse"><stop stop-color="#4BFDE8"></stop><stop offset="0.58" stop-color="#4BFDE8" stop-opacity="0"></stop></radialGradient><linearGradient id="paint6_linear_79311_35603" x1="20.17" y1="25.98" x2="20.17" y2="12.38" gradientUnits="userSpaceOnUse"><stop stop-color="#0086FF"></stop><stop offset="0.49" stop-color="#0BF"></stop></linearGradient></defs></svg>