<svg xmlns="http://www.w3.org/2000/svg" fill="none" viewBox="0 0 24 24"><path fill="url(#prefix__a)" d="M3 17.5a4 4 0 014-4h14V21a2 2 0 01-2 2l-12.25-.003A3.75 3.75 0 013 19.247V17.5z"/><path fill="url(#prefix__b)" d="M12.5 5.5H21v8a2 2 0 01-2 2h-6.5v-10z"/><path fill="url(#prefix__c)" d="M3.004 4.75A3.75 3.75 0 016.754 1H19a2 2 0 012 2v3.5a2 2 0 01-2 2h-2a2 2 0 00-2 2v3a2 2 0 01-2 2H6.75a3.746 3.746 0 00-3.746 3.75V4.75z"/><path fill="url(#prefix__d)" d="M3.004 4.75A3.75 3.75 0 016.754 1H19a2 2 0 012 2v3.5a2 2 0 01-2 2h-2a2 2 0 00-2 2v3a2 2 0 01-2 2H6.75a3.746 3.746 0 00-3.746 3.75V4.75z"/><rect width="10" height="10" y="11" fill="url(#prefix__e)" rx="2.25"/><rect width="10" height="10" y="11" fill="url(#prefix__f)" fill-opacity=".8" rx="2.25"/><path fill="#fff" d="M7.693 19H6.332l-2.468-3.703a12.19 12.19 0 01-.175-.289 2.648 2.648 0 01-.109-.209h-.016c.005.106.01.24.012.402.003.162.004.351.004.569V19H2.307v-6H3.76l2.375 3.586c.05.08.1.163.147.247.05.08.096.161.137.242h.017a5.673 5.673 0 01-.013-.31c-.002-.139-.004-.31-.004-.514V13h1.274v6z"/><defs><radialGradient id="prefix__a" cx="0" cy="0" r="1" gradientTransform="matrix(28.544 0 0 12.6971 20.475 23)" gradientUnits="userSpaceOnUse"><stop offset=".159" stop-color="#A931D8"/><stop offset=".566" stop-color="#6E1996"/></radialGradient><radialGradient id="prefix__d" cx="0" cy="0" r="1" gradientTransform="rotate(121.132 11.175 6.242) scale(17.5015 30.5792)" gradientUnits="userSpaceOnUse"><stop stop-color="#FFC7A3"/><stop offset=".831" stop-color="#DE67FD" stop-opacity="0"/></radialGradient><radialGradient id="prefix__e" cx="0" cy="0" r="1" gradientTransform="rotate(45 -13.278 5.5) scale(14.1421)" gradientUnits="userSpaceOnUse"><stop offset=".072" stop-color="#AC13EB"/><stop offset=".879" stop-color="#580087"/></radialGradient><radialGradient id="prefix__f" cx="0" cy="0" r="1" gradientTransform="matrix(0 7 -8.0625 0 5 17)" gradientUnits="userSpaceOnUse"><stop offset=".585" stop-color="#841FB0" stop-opacity="0"/><stop offset=".969" stop-color="#D373FC"/></radialGradient><linearGradient id="prefix__b" x1="24.816" x2="14.208" y1="10.97" y2="5.761" gradientUnits="userSpaceOnUse"><stop offset=".217" stop-color="#CA59F7"/><stop offset=".888" stop-color="#691A90"/></linearGradient><linearGradient id="prefix__c" x1="21.797" x2="3.004" y1="5.723" y2="5.723" gradientUnits="userSpaceOnUse"><stop offset=".807" stop-color="#DE66FF"/><stop offset="1" stop-color="#FCB1FF"/></linearGradient></defs></svg>