<svg width="32" height="32" viewBox="0 0 32 32" xmlns="http://www.w3.org/2000/svg" class="rxLNL ___soczk60 f1w7gpdv fez10in fve0sb9" fill="currentColor" aria-hidden="true"><path d="M5 22.1a5.1 5.1 0 015.1-5.1H27v9.5a2.5 2.5 0 01-2.5 2.5H9.75A4.75 4.75 0 015 24.25v-2.16z" fill="url(#paint0_linear_79311_35574)"></path><path d="M5 22.1a5.1 5.1 0 015.1-5.1H27v9.5a2.5 2.5 0 01-2.5 2.5H9.75A4.75 4.75 0 015 24.25v-2.16z" fill="url(#paint1_radial_79311_35574)" fill-opacity="0.8"></path><path d="M16 7.5h11v10a2.5 2.5 0 01-2.5 2.5H16V7.5z" fill="url(#paint2_linear_79311_35574)"></path><path d="M5 7.75A4.75 4.75 0 019.75 3H24.5A2.5 2.5 0 0127 5.5v4a2.5 2.5 0 01-2.5 2.5h-3a2.5 2.5 0 00-2.5 2.5v3a2.5 2.5 0 01-2.5 2.5H9.75A4.75 4.75 0 005 24.75v1.5-18.5z" fill="url(#paint3_linear_79311_35574)"></path><path d="M5 7.75A4.75 4.75 0 019.75 3H24.5A2.5 2.5 0 0127 5.5v4a2.5 2.5 0 01-2.5 2.5h-3a2.5 2.5 0 00-2.5 2.5v3a2.5 2.5 0 01-2.5 2.5H9.75A4.75 4.75 0 005 24.75v1.5-18.5z" fill="url(#paint4_radial_79311_35574)"></path><path d="M2 16.75A2.75 2.75 0 014.75 14h6.5A2.75 2.75 0 0114 16.75v6.5A2.75 2.75 0 0111.25 26h-6.5A2.75 2.75 0 012 23.25v-6.5z" fill="url(#paint5_radial_79311_35574)"></path><path d="M2 16.75A2.75 2.75 0 014.75 14h6.5A2.75 2.75 0 0114 16.75v6.5A2.75 2.75 0 0111.25 26h-6.5A2.75 2.75 0 012 23.25v-6.5z" fill="url(#paint6_radial_79311_35574)" fill-opacity="0.8"></path><path d="M10.92 23.25H9.45l-2.68-4.01a13.06 13.06 0 01-.31-.54h-.02a12.74 12.74 0 01.02 1.05v3.5H5.08v-6.5h1.57l2.58 3.88a7.82 7.82 0 01.31.53h.02a6.14 6.14 0 01-.02-.89v-3.52h1.38v6.5z" fill="#fff"></path><defs><radialGradient id="paint1_radial_79311_35574" cx="0" cy="0" r="1" gradientTransform="matrix(17.8053 18.3366 -19.3944 16.8341 25.3 32.2)" gradientUnits="userSpaceOnUse"><stop offset="0.06" stop-color="#A931D8" stop-opacity="0"></stop><stop offset="0.66" stop-color="#6E1996"></stop></radialGradient><radialGradient id="paint4_radial_79311_35574" cx="0" cy="0" r="1" gradientTransform="matrix(-15.3386 27.547 -26.5673 -15.9043 28.58 1.6)" gradientUnits="userSpaceOnUse"><stop stop-color="#FFC7A3"></stop><stop offset="0.69" stop-color="#DE67FD" stop-opacity="0"></stop></radialGradient><radialGradient id="paint5_radial_79311_35574" cx="0" cy="0" r="1" gradientUnits="userSpaceOnUse" gradientTransform="rotate(45 -15.9 9.41) scale(16.9706)"><stop offset="0.07" stop-color="#AC13EB"></stop><stop offset="0.88" stop-color="#580087"></stop></radialGradient><radialGradient id="paint6_radial_79311_35574" cx="0" cy="0" r="1" gradientUnits="userSpaceOnUse" gradientTransform="matrix(0 9 -9 0 8 21.2)"><stop offset="0.58" stop-color="#841FB0" stop-opacity="0"></stop><stop offset="0.97" stop-color="#D373FC"></stop></radialGradient><linearGradient id="paint0_linear_79311_35574" x1="16" y1="29" x2="14.86" y2="20.18" gradientUnits="userSpaceOnUse"><stop offset="0.22" stop-color="#A931D8"></stop><stop offset="0.9" stop-color="#57097C"></stop></linearGradient><linearGradient id="paint2_linear_79311_35574" x1="31.94" y1="14.34" x2="18.4" y2="7.45" gradientUnits="userSpaceOnUse"><stop offset="0.22" stop-color="#CA59F7"></stop><stop offset="0.89" stop-color="#691A90"></stop></linearGradient><linearGradient id="paint3_linear_79311_35574" x1="27.97" y1="9.02" x2="5" y2="9.02" gradientUnits="userSpaceOnUse"><stop offset="0.81" stop-color="#DE66FF"></stop><stop offset="1" stop-color="#FCB1FF"></stop></linearGradient></defs></svg>