<svg width="32" height="32" viewBox="0 0 32 32" xmlns="http://www.w3.org/2000/svg" class="rxLNL ___soczk60 f1w7gpdv fez10in fve0sb9" fill="currentColor" aria-hidden="true"><path d="M21 5.41L4.44 15.92 3 13.67v-1.93c0-.71.36-1.37.95-1.75l9.64-6.26a4.44 4.44 0 014.83 0L21 5.41z" fill="url(#paint0_linear_79314_10796)"></path><path d="M18.27 3.64l.15.1 7.52 4.87L7.29 20.43l-2.86-4.51 13.68-8.7a2.19 2.19 0 00.16-3.58z" fill="url(#paint1_linear_79314_10796)"></path><path d="M18.27 3.64l.15.1 7.52 4.87L7.29 20.43l-2.86-4.51 13.68-8.7a2.19 2.19 0 00.16-3.58z" fill="url(#paint2_linear_79314_10796)" fill-opacity="0.2"></path><path d="M14.73 22.7l-7.44-2.27L23.1 10.41a2.15 2.15 0 000-3.63l-.08-.05.2.13 4.82 3.12c.6.39.95 1.04.95 1.75v1.88l-14.27 9.08z" fill="url(#paint3_linear_79314_10796)"></path><path d="M14.73 22.7l-7.44-2.27L23.1 10.41a2.15 2.15 0 000-3.63l-.08-.05.2.13 4.82 3.12c.6.39.95 1.04.95 1.75v1.88l-14.27 9.08z" fill="url(#paint4_linear_79314_10796)" fill-opacity="0.2"></path><path d="M18.42 3.73a4.44 4.44 0 00-4.83 0L3.95 10c-.6.38-.95 1.04-.95 1.75v.09c.03.7.4 1.36 1 1.74l11.98 7.56L28 13.58c.62-.39 1-1.07 1-1.81v1.84-1.88c0-.7-.36-1.36-.95-1.75l-9.63-6.25z" fill="url(#paint5_radial_79314_10796)"></path><path d="M13.87 29H24.5a4.5 4.5 0 004.5-4.5V11.68c0 .8-.41 1.53-1.08 1.95L12.2 23.5a2.92 2.92 0 00-1.37 2.47A3.03 3.03 0 0013.87 29z" fill="url(#paint6_linear_79314_10796)"></path><path d="M13.87 29H24.5a4.5 4.5 0 004.5-4.5V11.68c0 .8-.41 1.53-1.08 1.95L12.2 23.5a2.92 2.92 0 00-1.37 2.47A3.03 3.03 0 0013.87 29z" fill="url(#paint7_radial_79314_10796)" fill-opacity="0.4"></path><path d="M13.87 29H24.5a4.5 4.5 0 004.5-4.5V11.68c0 .8-.41 1.53-1.08 1.95L12.2 23.5a2.92 2.92 0 00-1.37 2.47A3.03 3.03 0 0013.87 29z" fill="url(#paint8_radial_79314_10796)" fill-opacity="0.5"></path><path d="M18.19 29H7.5A4.5 4.5 0 013 24.5V11.71c0 .77.4 1.48 1.04 1.89l15.73 9.91A2.97 2.97 0 0118.2 29z" fill="url(#paint9_radial_79314_10796)"></path><path d="M18.19 29H7.5A4.5 4.5 0 013 24.5V11.71c0 .77.4 1.48 1.04 1.89l15.73 9.91A2.97 2.97 0 0118.2 29z" fill="url(#paint10_linear_79314_10796)"></path><path d="M2 16.75A2.75 2.75 0 014.75 14h6.5A2.75 2.75 0 0114 16.75v6.5A2.75 2.75 0 0111.25 26h-6.5A2.75 2.75 0 012 23.25v-6.5z" fill="url(#paint11_radial_79314_10796)"></path><path d="M2 16.75A2.75 2.75 0 014.75 14h6.5A2.75 2.75 0 0114 16.75v6.5A2.75 2.75 0 0111.25 26h-6.5A2.75 2.75 0 012 23.25v-6.5z" fill="url(#paint12_radial_79314_10796)" fill-opacity="0.5"></path><path d="M7.97 23.36c-.94 0-1.7-.3-2.3-.9-.6-.61-.91-1.4-.91-2.37 0-1.03.3-1.86.92-2.5.6-.63 1.4-.95 2.4-.95.93 0 1.69.3 2.27.91.6.61.89 1.41.89 2.4 0 1.03-.31 1.85-.92 2.48-.6.62-1.4.93-2.35.93zM8 22.08c.5 0 .92-.18 1.23-.54.3-.36.46-.86.46-1.5a2.4 2.4 0 00-.45-1.56c-.3-.37-.7-.56-1.2-.56-.53 0-.95.2-1.26.58-.32.38-.48.88-.48 1.51 0 .64.16 1.14.48 1.51.31.37.72.56 1.22.56z" fill="#fff"></path><defs><linearGradient id="paint0_linear_79314_10796" x1="5.88" y1="14.82" x2="21.01" y2="5.44" gradientUnits="userSpaceOnUse"><stop stop-color="#20A7FA"></stop><stop offset="0.4" stop-color="#3BD5FF"></stop><stop offset="1" stop-color="#C4B0FF"></stop></linearGradient><linearGradient id="paint1_linear_79314_10796" x1="11.09" y1="18.02" x2="25.94" y2="8.55" gradientUnits="userSpaceOnUse"><stop stop-color="#165AD9"></stop><stop offset="0.5" stop-color="#1880E5"></stop><stop offset="1" stop-color="#8587FF"></stop></linearGradient><linearGradient id="paint2_linear_79314_10796" x1="17.23" y1="18.2" x2="7.88" y2="10.58" gradientUnits="userSpaceOnUse"><stop offset="0.24" stop-color="#448AFF" stop-opacity="0"></stop><stop offset="0.79" stop-color="#0032B1"></stop></linearGradient><linearGradient id="paint3_linear_79314_10796" x1="16.04" y1="21.13" x2="30.81" y2="11.68" gradientUnits="userSpaceOnUse"><stop stop-color="#1A43A6"></stop><stop offset="0.49" stop-color="#2052CB"></stop><stop offset="1" stop-color="#5F20CB"></stop></linearGradient><linearGradient id="paint4_linear_79314_10796" x1="20.21" y1="20.57" x2="10.77" y2="13.33" gradientUnits="userSpaceOnUse"><stop stop-color="#0045B9" stop-opacity="0"></stop><stop offset="0.67" stop-color="#0D1F69"></stop></linearGradient><linearGradient id="paint6_linear_79314_10796" x1="29" y1="20.29" x2="15.89" y2="20.29" gradientUnits="userSpaceOnUse"><stop stop-color="#4DC4FF"></stop><stop offset="0.2" stop-color="#0FAFFF"></stop></linearGradient><linearGradient id="paint10_linear_79314_10796" x1="1.16" y1="26.02" x2="13.78" y2="26.02" gradientUnits="userSpaceOnUse"><stop offset="0.21" stop-color="#6CE0FF"></stop><stop offset="0.54" stop-color="#50D5FF" stop-opacity="0"></stop></linearGradient><radialGradient id="paint5_radial_79314_10796" cx="0" cy="0" r="1" gradientUnits="userSpaceOnUse" gradientTransform="rotate(-90 9.8 -6.2) scale(20.9209)"><stop offset="0.57" stop-color="#275FF0" stop-opacity="0"></stop><stop offset="0.99" stop-color="#002177"></stop></radialGradient><radialGradient id="paint7_radial_79314_10796" cx="0" cy="0" r="1" gradientUnits="userSpaceOnUse" gradientTransform="rotate(-45 40.92 -9.86) scale(8.35708)"><stop offset="0.26" stop-color="#0060D1"></stop><stop offset="0.91" stop-color="#0383F1" stop-opacity="0"></stop></radialGradient><radialGradient id="paint8_radial_79314_10796" cx="0" cy="0" r="1" gradientUnits="userSpaceOnUse" gradientTransform="rotate(-52.66 35.74 9.7) scale(28.3684)"><stop offset="0.69" stop-color="#F4A7F7" stop-opacity="0"></stop><stop offset="0.92" stop-color="#F4A7F7"></stop></radialGradient><radialGradient id="paint9_radial_79314_10796" cx="0" cy="0" r="1" gradientUnits="userSpaceOnUse" gradientTransform="rotate(134.84 4.83 15.26) scale(31.4986)"><stop stop-color="#49DEFF"></stop><stop offset="0.43" stop-color="#29C3FF"></stop></radialGradient><radialGradient id="paint11_radial_79314_10796" cx="0" cy="0" r="1" gradientUnits="userSpaceOnUse" gradientTransform="rotate(46.92 -15.68 9.49) scale(15.7964)"><stop offset="0.04" stop-color="#0091FF"></stop><stop offset="0.92" stop-color="#183DAD"></stop></radialGradient><radialGradient id="paint12_radial_79314_10796" cx="0" cy="0" r="1" gradientUnits="userSpaceOnUse" gradientTransform="matrix(0 9.16384 -9.16384 0 8 21.58)"><stop offset="0.63" stop-color="#0FA5F7" stop-opacity="0"></stop><stop offset="1" stop-color="#74C6FF"></stop></radialGradient></defs></svg>