<svg xmlns="http://www.w3.org/2000/svg" fill="none" viewBox="0 0 24 24"><ellipse cx="12" cy="12.012" fill="url(#prefix__prefix__a)" rx="10.749" ry="10.75"/><ellipse cx="12" cy="12.012" fill="url(#prefix__prefix__b)" rx="10.749" ry="10.75"/><ellipse cx="12" cy="12.012" fill="url(#prefix__prefix__c)" fill-opacity=".5" rx="10.749" ry="10.75"/><path fill="url(#prefix__prefix__d)" d="M12 1.262c5.936 0 10.749 4.813 10.749 10.75 0 1.965-.53 3.806-1.452 5.391l.166-.367c1.063-2.36-.664-5.033-3.253-5.033h-4.293a1.925 1.925 0 01-1.925-1.927l.003-4.271c.002-2.593-2.674-4.322-5.037-3.254l-.313.141A10.696 10.696 0 0112 1.262z"/><path fill="url(#prefix__prefix__e)" d="M12 1.262c5.936 0 10.749 4.813 10.749 10.75 0 1.965-.53 3.806-1.452 5.391l.166-.367c1.063-2.36-.664-5.033-3.253-5.033h-4.293a1.925 1.925 0 01-1.925-1.927l.003-4.271c.002-2.593-2.674-4.322-5.037-3.254l-.313.141A10.696 10.696 0 0112 1.262z"/><path fill="url(#prefix__prefix__f)" fill-opacity=".8" d="M12 1.262c5.936 0 10.749 4.813 10.749 10.75 0 1.965-.53 3.806-1.452 5.391l.166-.367c1.063-2.36-.664-5.033-3.253-5.033h-4.293a1.925 1.925 0 01-1.925-1.927l.003-4.271c.002-2.593-2.674-4.322-5.037-3.254l-.313.141A10.696 10.696 0 0112 1.262z"/><path fill="url(#prefix__prefix__g)" d="M12 1.262c5.936 0 10.749 4.813 10.749 10.75 0 1.965-.53 3.806-1.452 5.391l.166-.367c1.063-2.36-.664-5.033-3.253-5.033h-4.293a1.925 1.925 0 01-1.925-1.927l.003-4.271c.002-2.593-2.674-4.322-5.037-3.254l-.313.141A10.696 10.696 0 0112 1.262z"/><path fill="url(#prefix__prefix__h)" d="M12 1.262c5.936 0 10.749 4.813 10.749 10.75 0 1.965-.53 3.806-1.452 5.391l.166-.367c1.063-2.36-.664-5.033-3.253-5.033h-4.293a1.925 1.925 0 01-1.925-1.927l.003-4.271c.002-2.593-2.674-4.322-5.037-3.254l-.313.141A10.696 10.696 0 0112 1.262z"/><rect width="10" height="10" y="11" fill="url(#prefix__prefix__i)" rx="2.25"/><rect width="10" height="10" y="11" fill="url(#prefix__prefix__j)" fill-opacity=".3" rx="2.25"/><path fill="#fff" d="M4.161 17.046V19H2.813v-6h2.083c.746 0 1.313.163 1.703.49.392.326.589.81.589 1.451 0 .661-.22 1.178-.66 1.548-.437.371-1.024.557-1.762.557h-.605zm0-3.008v1.97h.564c.334 0 .591-.087.772-.263.18-.176.271-.428.271-.758 0-.304-.089-.538-.267-.703-.175-.164-.427-.246-.756-.246h-.584z"/><defs><radialGradient id="prefix__prefix__b" cx="0" cy="0" r="1" gradientTransform="matrix(-15.2617 15.2617 -25.6875 -25.6875 16.247 7.5)" gradientUnits="userSpaceOnUse"><stop offset=".152" stop-color="#AA1D2D"/><stop offset=".381" stop-color="#D12B18" stop-opacity=".44"/><stop offset=".602" stop-color="#FF3C00" stop-opacity="0"/></radialGradient><radialGradient id="prefix__prefix__c" cx="0" cy="0" r="1" gradientTransform="matrix(18.5 -8.73828 15.83066 33.51546 -2.501 20.75)" gradientUnits="userSpaceOnUse"><stop offset=".407" stop-color="#FF66FB"/><stop offset="1" stop-color="#EA3D01" stop-opacity="0"/></radialGradient><radialGradient id="prefix__prefix__e" cx="0" cy="0" r="1" gradientTransform="matrix(13.58008 2.846 -2.71352 12.94792 10.214 13.28)" gradientUnits="userSpaceOnUse"><stop offset=".786" stop-color="#FFA05C" stop-opacity="0"/><stop offset=".905" stop-color="#FFCE84"/></radialGradient><radialGradient id="prefix__prefix__f" cx="0" cy="0" r="1" gradientTransform="rotate(-33.201 26.044 -14.863) scale(14.0109 13.3994)" gradientUnits="userSpaceOnUse"><stop offset=".295" stop-color="#FF99E9"/><stop offset=".728" stop-color="#FF99E9" stop-opacity="0"/></radialGradient><radialGradient id="prefix__prefix__g" cx="0" cy="0" r="1" gradientTransform="matrix(9.81307 -11.23586 10.26131 8.96193 10.817 13.474)" gradientUnits="userSpaceOnUse"><stop stop-color="#FD6EF9"/><stop offset=".637" stop-color="#F94"/><stop offset=".852" stop-color="#FCC479"/></radialGradient><radialGradient id="prefix__prefix__h" cx="0" cy="0" r="1" gradientTransform="matrix(-1.10845 7.51183 -16.97499 -2.50483 9.84 2.68)" gradientUnits="userSpaceOnUse"><stop offset=".144" stop-color="#FF8D13"/><stop offset=".537" stop-color="#FF7F29" stop-opacity="0"/></radialGradient><radialGradient id="prefix__prefix__i" cx="0" cy="0" r="1" gradientTransform="rotate(45 -13.279 5.499) scale(14.1421)" gradientUnits="userSpaceOnUse"><stop stop-color="#F8193E"/><stop offset=".939" stop-color="#920616"/></radialGradient><radialGradient id="prefix__prefix__j" cx="0" cy="0" r="1" gradientTransform="matrix(0 7 -7.96875 0 4.999 17)" gradientUnits="userSpaceOnUse"><stop offset=".576" stop-color="#FFB055" stop-opacity="0"/><stop offset=".974" stop-color="#FFF2BE"/></radialGradient><linearGradient id="prefix__prefix__a" x1="10.909" x2="-2.262" y1=".577" y2="13.177" gradientUnits="userSpaceOnUse"><stop offset=".058" stop-color="#FF7F48"/><stop offset="1" stop-color="#E5495B"/></linearGradient><linearGradient id="prefix__prefix__d" x1="14.048" x2="25.601" y1="14.385" y2="5.823" gradientUnits="userSpaceOnUse"><stop offset=".311" stop-color="#FF6E30"/><stop offset=".635" stop-color="#FFA05C"/></linearGradient></defs></svg>