<svg width="32" height="32" viewBox="0 0 32 32" xmlns="http://www.w3.org/2000/svg" class="rxLNL ___soczk60 f1w7gpdv fez10in fve0sb9" fill="currentColor" aria-hidden="true"><circle cx="16" cy="16" fill="url(#paint0_linear_79314_10749)" r="13.25"></circle><circle cx="16" cy="16" fill="url(#paint1_radial_79314_10749)" r="13.25"></circle><circle cx="16" cy="16" fill="url(#paint2_radial_79314_10749)" r="13.25"></circle><circle cx="16" cy="16" fill="url(#paint3_radial_79314_10749)" fill-opacity="0.5" r="13.25"></circle><path d="M16 2.75a13.25 13.25 0 0111.44 19.93l.11-.25A4.56 4.56 0 0023.4 16h-4.93A2.46 2.46 0 0116 13.54V8.6a4.56 4.56 0 00-6.44-4.16l-.2.09A13.19 13.19 0 0116 2.75z" fill="url(#paint4_radial_79314_10749)"></path><path d="M16 2.75a13.25 13.25 0 0111.44 19.93l.11-.25A4.56 4.56 0 0023.4 16h-4.93A2.46 2.46 0 0116 13.54V8.6a4.56 4.56 0 00-6.44-4.16l-.2.09A13.19 13.19 0 0116 2.75z" fill="url(#paint5_radial_79314_10749)"></path><path d="M2 16.75A2.75 2.75 0 014.75 14h6.5A2.75 2.75 0 0114 16.75v6.5A2.75 2.75 0 0111.25 26h-6.5A2.75 2.75 0 012 23.25v-6.5z" fill="url(#paint6_radial_79314_10749)"></path><path d="M2 16.75A2.75 2.75 0 014.75 14h6.5A2.75 2.75 0 0114 16.75v6.5A2.75 2.75 0 0111.25 26h-6.5A2.75 2.75 0 012 23.25v-6.5z" fill="url(#paint7_radial_79314_10749)" fill-opacity="0.3"></path><path d="M7.33 21.13v2.12H5.87v-6.5h2.26c.8 0 1.43.18 1.85.53.42.35.64.88.64 1.57 0 .72-.24 1.28-.72 1.68-.47.4-1.11.6-1.91.6h-.66zm0-3.26v2.14h.61c.37 0 .65-.1.84-.29.2-.19.3-.46.3-.82 0-.33-.1-.58-.3-.76-.18-.18-.46-.27-.81-.27h-.64z" fill="#fff"></path><defs><radialGradient id="paint1_radial_79314_10749" cx="0" cy="0" r="1" gradientTransform="matrix(-19.3913 19.4139 -19.3913 -19.4139 21.8 9.84)" gradientUnits="userSpaceOnUse"><stop offset="0.15" stop-color="#AA1D2D"></stop><stop offset="0.38" stop-color="#D12B18" stop-opacity="0.44"></stop><stop offset="0.6" stop-color="#FF3C00" stop-opacity="0"></stop></radialGradient><radialGradient id="paint2_radial_79314_10749" cx="0" cy="0" r="1" gradientTransform="scale(-53.1201 -53.1822) rotate(-45 -.36 .57)" gradientUnits="userSpaceOnUse"><stop offset="0.2" stop-color="#AA1D2D"></stop><stop offset="0.31" stop-color="#D12B18" stop-opacity="0.44"></stop><stop offset="0.42" stop-color="#FF3C00" stop-opacity="0"></stop></radialGradient><radialGradient id="paint3_radial_79314_10749" cx="0" cy="0" r="1" gradientTransform="matrix(33.9025 -19.5965 19.5736 33.9422 -7.24 32.92)" gradientUnits="userSpaceOnUse"><stop offset="0.46" stop-color="#FF66FB"></stop><stop offset="1" stop-color="#EA3D01" stop-opacity="0"></stop></radialGradient><radialGradient id="paint4_radial_79314_10749" cx="0" cy="0" r="1" gradientTransform="matrix(12.1147 -13.8748 13.8752 12.1143 14.52 17.83)" gradientUnits="userSpaceOnUse"><stop stop-color="#FD6EF9"></stop><stop offset="0.64" stop-color="#F94"></stop><stop offset="0.85" stop-color="#FCC479"></stop></radialGradient><radialGradient id="paint5_radial_79314_10749" cx="0" cy="0" r="1" gradientTransform="matrix(-14.9482 14.6427 -14.6431 -14.9477 13.52 1.83)" gradientUnits="userSpaceOnUse"><stop offset="0.14" stop-color="#FF8D13"></stop><stop offset="0.54" stop-color="#FF7F29" stop-opacity="0"></stop></radialGradient><radialGradient id="paint6_radial_79314_10749" cx="0" cy="0" r="1" gradientUnits="userSpaceOnUse" gradientTransform="rotate(45 -15.9 9.41) scale(16.9706)"><stop stop-color="#F8193E"></stop><stop offset="0.94" stop-color="#920616"></stop></radialGradient><radialGradient id="paint7_radial_79314_10749" cx="0" cy="0" r="1" gradientUnits="userSpaceOnUse" gradientTransform="matrix(0 8.4 -9.5625 0 8 21.2)"><stop offset="0.58" stop-color="#FFB055" stop-opacity="0"></stop><stop offset="0.97" stop-color="#FFF2BE"></stop></radialGradient><linearGradient id="paint0_linear_79314_10749" x1="24.26" y1="4.76" x2="6.29" y2="25.66" gradientUnits="userSpaceOnUse"><stop offset="0.15" stop-color="#FF7F48"></stop><stop offset="1" stop-color="#E5495B"></stop></linearGradient></defs></svg>