<svg width="32" height="32" viewBox="0 0 32 32" xmlns="http://www.w3.org/2000/svg" class="rxLNL ___soczk60 f1w7gpdv fez10in fve0sb9" fill="currentColor" aria-hidden="true"><path d="M14 14h9.5a4.5 4.5 0 014.5 4.5v6a4.5 4.5 0 01-9 0v-6a4.5 4.5 0 00-4.5-4.5H14z" fill="url(#paint0_radial_79314_10674)"></path><path d="M4 16.5A4.5 4.5 0 018.5 12h6a4.5 4.5 0 014.5 4.5v8a4.5 4.5 0 004.5 4.5h.5-12.5A7.5 7.5 0 014 21.5v-5z" fill="url(#paint1_radial_79314_10674)"></path><path d="M4 16.5A4.5 4.5 0 018.5 12h6a4.5 4.5 0 014.5 4.5v8a4.5 4.5 0 004.5 4.5h.5-12.5A7.5 7.5 0 014 21.5v-5z" fill="url(#paint2_linear_79314_10674)" fill-opacity="0.7"></path><path d="M4 16.5A4.5 4.5 0 018.5 12h6a4.5 4.5 0 014.5 4.5v8a4.5 4.5 0 004.5 4.5h.5-12.5A7.5 7.5 0 014 21.5v-5z" fill="url(#paint3_radial_79314_10674)" fill-opacity="0.7"></path><path d="M22.5 12.5a3.75 3.75 0 100-7.5 3.75 3.75 0 000 7.5z" fill="url(#paint4_radial_79314_10674)"></path><path d="M22.5 12.5a3.75 3.75 0 100-7.5 3.75 3.75 0 000 7.5z" fill="url(#paint5_radial_79314_10674)" fill-opacity="0.46"></path><path d="M22.5 12.5a3.75 3.75 0 100-7.5 3.75 3.75 0 000 7.5z" fill="url(#paint6_radial_79314_10674)" fill-opacity="0.4"></path><path d="M11.5 10.5a4.25 4.25 0 100-8.5 4.25 4.25 0 000 8.5z" fill="url(#paint7_radial_79314_10674)"></path><path d="M11.5 10.5a4.25 4.25 0 100-8.5 4.25 4.25 0 000 8.5z" fill="url(#paint8_radial_79314_10674)" fill-opacity="0.6"></path><path d="M11.5 10.5a4.25 4.25 0 100-8.5 4.25 4.25 0 000 8.5z" fill="url(#paint9_radial_79314_10674)" fill-opacity="0.5"></path><path d="M14 14h9.5a4.5 4.5 0 014.5 4.5v6a4.5 4.5 0 01-9 0v-6a4.5 4.5 0 00-4.5-4.5H14z" fill="url(#paint10_radial_79314_10674)"></path><path d="M14 14h9.5a4.5 4.5 0 014.5 4.5v6a4.5 4.5 0 01-9 0v-6a4.5 4.5 0 00-4.5-4.5H14z" fill="url(#paint11_linear_79314_10674)" fill-opacity="0.5"></path><path d="M4 16.5A4.5 4.5 0 018.5 12h6a4.5 4.5 0 014.5 4.5v8a4.5 4.5 0 004.5 4.5h.5-12.5A7.5 7.5 0 014 21.5v-5z" fill="url(#paint12_radial_79314_10674)"></path><path d="M4 16.5A4.5 4.5 0 018.5 12h6a4.5 4.5 0 014.5 4.5v8a4.5 4.5 0 004.5 4.5h.5-12.5A7.5 7.5 0 014 21.5v-5z" fill="url(#paint13_linear_79314_10674)" fill-opacity="0.7"></path><path d="M4 16.5A4.5 4.5 0 018.5 12h6a4.5 4.5 0 014.5 4.5v8a4.5 4.5 0 004.5 4.5h.5-12.5A7.5 7.5 0 014 21.5v-5z" fill="url(#paint14_radial_79314_10674)" fill-opacity="0.7"></path><path d="M22.5 12.5a3.75 3.75 0 100-7.5 3.75 3.75 0 000 7.5z" fill="url(#paint15_radial_79314_10674)"></path><path d="M22.5 12.5a3.75 3.75 0 100-7.5 3.75 3.75 0 000 7.5z" fill="url(#paint16_radial_79314_10674)" fill-opacity="0.56"></path><path d="M22.5 12.5a3.75 3.75 0 100-7.5 3.75 3.75 0 000 7.5z" fill="url(#paint17_linear_79314_10674)" fill-opacity="0.4"></path><path d="M11.5 10.5a4.25 4.25 0 100-8.5 4.25 4.25 0 000 8.5z" fill="url(#paint18_radial_79314_10674)"></path><path d="M11.5 10.5a4.25 4.25 0 100-8.5 4.25 4.25 0 000 8.5z" fill="url(#paint19_radial_79314_10674)" fill-opacity="0.7"></path><path d="M11.5 10.5a4.25 4.25 0 100-8.5 4.25 4.25 0 000 8.5z" fill="url(#paint20_linear_79314_10674)" fill-opacity="0.5"></path><path d="M2 16.75A2.75 2.75 0 014.75 14h6.5A2.75 2.75 0 0114 16.75v6.5A2.75 2.75 0 0111.25 26h-6.5A2.75 2.75 0 012 23.25v-6.5z" fill="url(#paint21_radial_79314_10674)"></path><path d="M2 16.75A2.75 2.75 0 014.75 14h6.5A2.75 2.75 0 0114 16.75v6.5A2.75 2.75 0 0111.25 26h-6.5A2.75 2.75 0 012 23.25v-6.5z" fill="url(#paint22_radial_79314_10674)" fill-opacity="0.7"></path><path d="M10.48 17.94H8.73v5.31H7.27v-5.3H5.52v-1.2h4.96v1.2z" fill="#fff"></path><defs><radialGradient id="paint0_radial_79314_10674" cx="0" cy="0" r="1" gradientUnits="userSpaceOnUse" gradientTransform="matrix(9.49463 0 0 23.4361 26.4 14.8)"><stop stop-color="#A98AFF"></stop><stop offset="0.14" stop-color="#8C75FF"></stop><stop offset="0.56" stop-color="#5F50E2"></stop><stop offset="0.9" stop-color="#3C2CB8"></stop></radialGradient><radialGradient id="paint1_radial_79314_10674" cx="0" cy="0" r="1" gradientTransform="matrix(8.86997 22.2146 -22.4706 8.76893 4.6 10.06)" gradientUnits="userSpaceOnUse"><stop stop-color="#85C2FF"></stop><stop offset="0.69" stop-color="#7588FF"></stop><stop offset="1" stop-color="#6459FE"></stop></radialGradient><radialGradient id="paint3_radial_79314_10674" cx="0" cy="0" r="1" gradientTransform="matrix(-5.53832 12.896 -10.8694 -3.16161 18.2 10.65)" gradientUnits="userSpaceOnUse"><stop stop-color="#BD96FF"></stop><stop offset="0.69" stop-color="#BD96FF" stop-opacity="0"></stop></radialGradient><radialGradient id="paint4_radial_79314_10674" cx="0" cy="0" r="1" gradientUnits="userSpaceOnUse" gradientTransform="matrix(0 -7.5 9.46622 0 22.5 7.68)"><stop offset="0.27" stop-color="#6868F7"></stop><stop offset="1" stop-color="#3923B1"></stop></radialGradient><radialGradient id="paint5_radial_79314_10674" cx="0" cy="0" r="1" gradientUnits="userSpaceOnUse" gradientTransform="matrix(4.10268 3.44886 -4.98836 5.93403 19.4 6.9)"><stop offset="0.27" stop-color="#A1D3FF"></stop><stop offset="0.81" stop-color="#A1D3FF" stop-opacity="0"></stop></radialGradient><radialGradient id="paint6_radial_79314_10674" cx="0" cy="0" r="1" gradientUnits="userSpaceOnUse" gradientTransform="matrix(4.77006 -4.24372 10.41015 11.70131 25.49 6.78)"><stop stop-color="#E3ACFD"></stop><stop offset="0.82" stop-color="#9FA2FF" stop-opacity="0"></stop></radialGradient><radialGradient id="paint7_radial_79314_10674" cx="0" cy="0" r="1" gradientUnits="userSpaceOnUse" gradientTransform="matrix(0 -8.5 10.7284 0 11.5 5.04)"><stop offset="0.27" stop-color="#8282FF"></stop><stop offset="1" stop-color="#3923B1"></stop></radialGradient><radialGradient id="paint8_radial_79314_10674" cx="0" cy="0" r="1" gradientUnits="userSpaceOnUse" gradientTransform="matrix(4.6497 3.9087 -5.65348 6.72524 7.99 4.16)"><stop offset="0.27" stop-color="#A1D3FF"></stop><stop offset="0.81" stop-color="#A1D3FF" stop-opacity="0"></stop></radialGradient><radialGradient id="paint9_radial_79314_10674" cx="0" cy="0" r="1" gradientUnits="userSpaceOnUse" gradientTransform="rotate(-41.66 12.72 -17.56) scale(7.23583 17.7501)"><stop stop-color="#E3ACFD"></stop><stop offset="0.82" stop-color="#9FA2FF" stop-opacity="0"></stop></radialGradient><radialGradient id="paint10_radial_79314_10674" cx="0" cy="0" r="1" gradientUnits="userSpaceOnUse" gradientTransform="matrix(63.6993 0 0 56.875 28.93 17.54)"><stop stop-color="#A386FF"></stop><stop offset="0.11" stop-color="#6B5BEA"></stop><stop offset="0.23" stop-color="#3F2FBC"></stop></radialGradient><radialGradient id="paint12_radial_79314_10674" cx="0" cy="0" r="1" gradientTransform="matrix(9.37511 21.5333 -23.2225 8.69318 4.62 10.87)" gradientUnits="userSpaceOnUse"><stop stop-color="#85C2FF"></stop><stop offset="0.69" stop-color="#7588FF"></stop><stop offset="1" stop-color="#6459FE"></stop></radialGradient><radialGradient id="paint14_radial_79314_10674" cx="0" cy="0" r="1" gradientTransform="matrix(-5.85373 12.5005 -13.4811 -5.42794 19 11.43)" gradientUnits="userSpaceOnUse"><stop stop-color="#BD96FF"></stop><stop offset="0.69" stop-color="#BD96FF" stop-opacity="0"></stop></radialGradient><radialGradient id="paint15_radial_79314_10674" cx="0" cy="0" r="1" gradientUnits="userSpaceOnUse" gradientTransform="rotate(-90 15.09 -7.41) scale(8.74951)"><stop offset="0.27" stop-color="#6868F7"></stop><stop offset="0.82" stop-color="#3923B1"></stop></radialGradient><radialGradient id="paint16_radial_79314_10674" cx="0" cy="0" r="1" gradientUnits="userSpaceOnUse" gradientTransform="rotate(45 2.14 25.13) scale(10.7002)"><stop offset="0.17" stop-color="#A1D3FF"></stop><stop offset="0.57" stop-color="#A1D3FF" stop-opacity="0"></stop></radialGradient><radialGradient id="paint18_radial_79314_10674" cx="0" cy="0" r="1" gradientUnits="userSpaceOnUse" gradientTransform="rotate(-90 8.27 -3.23) scale(9.75983)"><stop offset="0.27" stop-color="#8282FF"></stop><stop offset="1" stop-color="#3923B1"></stop></radialGradient><radialGradient id="paint19_radial_79314_10674" cx="0" cy="0" r="1" gradientUnits="userSpaceOnUse" gradientTransform="rotate(46.91 -.05 9.63) scale(8.54052)"><stop offset="0.23" stop-color="#A1D3FF"></stop><stop offset="0.75" stop-color="#A1D3FF" stop-opacity="0"></stop></radialGradient><radialGradient id="paint21_radial_79314_10674" cx="0" cy="0" r="1" gradientUnits="userSpaceOnUse" gradientTransform="rotate(45 -15.9 9.41) scale(16.9706)"><stop offset="0.05" stop-color="#688EFF"></stop><stop offset="0.95" stop-color="#230F94"></stop></radialGradient><radialGradient id="paint22_radial_79314_10674" cx="0" cy="0" r="1" gradientUnits="userSpaceOnUse" gradientTransform="matrix(0 9.16384 -9.16384 0 8 21.58)"><stop offset="0.57" stop-color="#6965F6" stop-opacity="0"></stop><stop offset="1" stop-color="#8F8FFF"></stop></radialGradient><linearGradient id="paint2_linear_79314_10674" x1="13.17" y1="11.23" x2="13.17" y2="28.77" gradientUnits="userSpaceOnUse"><stop offset="0.8" stop-color="#6864F6" stop-opacity="0"></stop><stop offset="1" stop-color="#5149DE"></stop></linearGradient><linearGradient id="paint11_linear_79314_10674" x1="28" y1="19.69" x2="16.86" y2="19.69" gradientUnits="userSpaceOnUse"><stop offset="0.46" stop-color="#3C2CB8" stop-opacity="0"></stop><stop offset="1" stop-color="#10008F"></stop></linearGradient><linearGradient id="paint13_linear_79314_10674" x1="13.69" y1="12" x2="13.69" y2="29" gradientUnits="userSpaceOnUse"><stop offset="0.8" stop-color="#6864F6" stop-opacity="0"></stop><stop offset="1" stop-color="#5149DE"></stop></linearGradient><linearGradient id="paint17_linear_79314_10674" x1="20.72" y1="11.02" x2="30.26" y2="2.53" gradientUnits="userSpaceOnUse"><stop offset="0.05" stop-color="#9FA2FF" stop-opacity="0"></stop><stop offset="0.5" stop-color="#E3ACFD"></stop></linearGradient><linearGradient id="paint20_linear_79314_10674" x1="9.48" y1="8.82" x2="20.29" y2="-0.8" gradientUnits="userSpaceOnUse"><stop offset="0.05" stop-color="#9FA2FF" stop-opacity="0"></stop><stop offset="0.5" stop-color="#E3ACFD"></stop></linearGradient></defs></svg>