<svg width="32" height="32" viewBox="0 0 32 32" xmlns="http://www.w3.org/2000/svg" class="rxLNL ___soczk60 f1w7gpdv fez10in fve0sb9" fill="currentColor" aria-hidden="true"><g clip-path="url(#clip0_105551_394)"><path d="M5.11 10.3L.36 15.07a1.33 1.33 0 000 1.88L7 23.57l6.63-6.63L7 10.31a1.33 1.33 0 00-1.88 0z" fill="#185ABD"></path><path d="M31.64 8.43l-4.75-4.75a1.33 1.33 0 00-1.88 0l-5.7 5.69L12.69 16 7 21.7a1.33 1.33 0 000 1.87l4.75 4.75a1.33 1.33 0 001.88 0l5.7-5.69L25.95 16l5.69-5.7a1.33 1.33 0 000-1.87z" fill="url(#paint0_linear_105551_394)"></path></g><defs><linearGradient id="paint0_linear_105551_394" x1="18.88" y1="-3.77" x2="-0.35" y2="16.32" gradientUnits="userSpaceOnUse"><stop stop-color="#62C4F6"></stop><stop offset="1" stop-color="#2A88E5"></stop></linearGradient><clipPath id="clip0_105551_394"><path fill="#fff" d="M0 0h32v32H0z"></path></clipPath></defs></svg>