<svg xmlns="http://www.w3.org/2000/svg" fill="none" viewBox="0 0 24 24"><path fill="url(#prefix__a)" d="M3 17.346L12 6.5l9 7.048V21a2 2 0 01-2 2H6.75A3.75 3.75 0 013 19.25v-1.904z"/><path fill="url(#prefix__b)" d="M3 10.744a2.75 2.75 0 012.75-2.75H19l2-1.5v7a2 2 0 01-2 2H6.75A3.75 3.75 0 003 19.244v.25-8.75z"/><path fill="url(#prefix__c)" fill-opacity=".6" d="M3 10.744a2.75 2.75 0 012.75-2.75H19l2-1.5v7a2 2 0 01-2 2H6.75A3.75 3.75 0 003 19.244v.25-8.75z"/><path fill="url(#prefix__d)" fill-opacity=".1" d="M3 10.744a2.75 2.75 0 012.75-2.75H19l2-1.5v7a2 2 0 01-2 2H6.75A3.75 3.75 0 003 19.244v.25-8.75z"/><path fill="url(#prefix__e)" d="M3 4.75A3.75 3.75 0 016.75 1H19a2 2 0 012 2v3.495a2 2 0 01-2 2H6.565A3.565 3.565 0 003 12.059V4.75z"/><path fill="url(#prefix__f)" fill-opacity=".8" d="M3 4.75A3.75 3.75 0 016.75 1H19a2 2 0 012 2v3.495a2 2 0 01-2 2H6.565A3.565 3.565 0 003 12.059V4.75z"/><rect width="10" height="10" y="11" fill="url(#prefix__g)" rx="2.25"/><rect width="10" height="10" y="11" fill="url(#prefix__h)" fill-opacity=".65" rx="2.25"/><path fill="#fff" d="M8.6 13l-1.292 6H5.763L5 15.4 4.2 19H2.64L1.4 13h1.274l.766 3.96L4.2 13h1.562l.797 3.96.748-3.96H8.6z"/><defs><radialGradient id="prefix__a" cx="0" cy="0" r="1" gradientTransform="matrix(28.544 0 0 12.7872 20.475 23)" gradientUnits="userSpaceOnUse"><stop offset=".18" stop-color="#1657F4"/><stop offset=".575" stop-color="#0036C4"/></radialGradient><radialGradient id="prefix__c" cx="0" cy="0" r="1" gradientTransform="matrix(-12.13827 12.57701 -30.99501 -29.91377 21 6.917)" gradientUnits="userSpaceOnUse"><stop offset=".14" stop-color="#D471FF"/><stop offset=".831" stop-color="#509DF5" stop-opacity="0"/></radialGradient><radialGradient id="prefix__d" cx="0" cy="0" r="1" gradientTransform="matrix(0 11 -60.9881 0 18.367 15.494)" gradientUnits="userSpaceOnUse"><stop offset=".283" stop-color="#4F006F" stop-opacity="0"/><stop offset="1" stop-color="#4F006F"/></radialGradient><radialGradient id="prefix__f" cx="0" cy="0" r="1" gradientTransform="rotate(166.551 10.42 1.918) scale(17.7191 43.3494)" gradientUnits="userSpaceOnUse"><stop offset=".061" stop-color="#E4A7FE"/><stop offset=".539" stop-color="#E4A7FE" stop-opacity="0"/></radialGradient><radialGradient id="prefix__g" cx="0" cy="0" r="1" gradientTransform="rotate(45 -13.278 5.5) scale(14.1421)" gradientUnits="userSpaceOnUse"><stop offset=".081" stop-color="#367AF2"/><stop offset=".872" stop-color="#001A8F"/></radialGradient><radialGradient id="prefix__h" cx="0" cy="0" r="1" gradientTransform="matrix(0 7 -7.97811 0 5 17)" gradientUnits="userSpaceOnUse"><stop offset=".587" stop-color="#2763E5" stop-opacity="0"/><stop offset=".974" stop-color="#58AAFE"/></radialGradient><linearGradient id="prefix__b" x1="3" x2="16.785" y1="12.994" y2="12.994" gradientUnits="userSpaceOnUse"><stop stop-color="#66C0FF"/><stop offset=".256" stop-color="#0094F0"/></linearGradient><linearGradient id="prefix__e" x1="3" x2="20.995" y1="6.53" y2="6.82" gradientUnits="userSpaceOnUse"><stop stop-color="#9DEAFF"/><stop offset=".201" stop-color="#3BD5FF"/></linearGradient></defs></svg>