<svg width="32" height="32" viewBox="0 0 32 32" xmlns="http://www.w3.org/2000/svg" class="rxLNL ___soczk60 f1w7gpdv fez10in fve0sb9" fill="currentColor" aria-hidden="true"><path d="M5 22.32L16.21 9.5 27 17.83v8.67a2.5 2.5 0 01-2.5 2.5h-15A4.5 4.5 0 015 24.5v-2.18z" fill="url(#paint0_radial_79314_10633)"></path><path d="M5 14.72c0-1.86 1.5-3.36 3.36-3.36h15.85L27 9.04v8.46a2.5 2.5 0 01-2.5 2.5H9.75A4.75 4.75 0 005 24.75v.1-10.13z" fill="url(#paint1_linear_79314_10633)"></path><path d="M5 14.72c0-1.86 1.5-3.36 3.36-3.36h15.85L27 9.04v8.46a2.5 2.5 0 01-2.5 2.5H9.75A4.75 4.75 0 005 24.75v.1-10.13z" fill="url(#paint2_radial_79314_10633)" fill-opacity="0.6"></path><path d="M5 14.72c0-1.86 1.5-3.36 3.36-3.36h15.85L27 9.04v8.46a2.5 2.5 0 01-2.5 2.5H9.75A4.75 4.75 0 005 24.75v.1-10.13z" fill="url(#paint3_linear_79314_10633)" fill-opacity="0.07"></path><path d="M5 7.5A4.5 4.5 0 019.5 3h15A2.5 2.5 0 0127 5.5v4a2.5 2.5 0 01-2.5 2.5H9.21A4.21 4.21 0 005 16.21V7.5z" fill="url(#paint4_linear_79314_10633)"></path><path d="M5 7.5A4.5 4.5 0 019.5 3h15A2.5 2.5 0 0127 5.5v4a2.5 2.5 0 01-2.5 2.5H9.21A4.21 4.21 0 005 16.21V7.5z" fill="url(#paint5_radial_79314_10633)" fill-opacity="0.8"></path><path d="M2 16.75A2.75 2.75 0 014.75 14h6.5A2.75 2.75 0 0114 16.75v6.5A2.75 2.75 0 0111.25 26h-6.5A2.75 2.75 0 012 23.25v-6.5z" fill="url(#paint6_radial_79314_10633)"></path><path d="M2 16.75A2.75 2.75 0 014.75 14h6.5A2.75 2.75 0 0114 16.75v6.5A2.75 2.75 0 0111.25 26h-6.5A2.75 2.75 0 012 23.25v-6.5z" fill="url(#paint7_radial_79314_10633)" fill-opacity="0.65"></path><path d="M11.9 16.75l-1.4 6.5H8.83L8 19.35l-.87 3.9H5.45l-1.35-6.5h1.38l.83 4.29.82-4.29h1.7l.86 4.29.81-4.29h1.4z" fill="#fff"></path><defs><radialGradient id="paint0_radial_79314_10633" cx="0" cy="0" r="1" gradientTransform="matrix(35.3269 -10.3594 10.7885 33.9218 24.67 39.36)" gradientUnits="userSpaceOnUse"><stop offset="0.33" stop-color="#1657F4"></stop><stop offset="0.57" stop-color="#0036C4"></stop></radialGradient><radialGradient id="paint2_radial_79314_10633" cx="0" cy="0" r="1" gradientTransform="matrix(-15.6818 12.6989 -12.9038 -15.4327 27.85 12.16)" gradientUnits="userSpaceOnUse"><stop offset="0.14" stop-color="#D471FF"></stop><stop offset="0.83" stop-color="#509DF5" stop-opacity="0"></stop></radialGradient><radialGradient id="paint5_radial_79314_10633" cx="0" cy="0" r="1" gradientTransform="matrix(-24.1154 6.27246 -6.4617 -23.4091 28.06 4.85)" gradientUnits="userSpaceOnUse"><stop offset="0.06" stop-color="#E4A7FE"></stop><stop offset="0.54" stop-color="#E4A7FE" stop-opacity="0"></stop></radialGradient><radialGradient id="paint6_radial_79314_10633" cx="0" cy="0" r="1" gradientUnits="userSpaceOnUse" gradientTransform="rotate(45 -15.9 9.41) scale(16.9706)"><stop offset="0.08" stop-color="#367AF2"></stop><stop offset="0.87" stop-color="#001A8F"></stop></radialGradient><radialGradient id="paint7_radial_79314_10633" cx="0" cy="0" r="1" gradientUnits="userSpaceOnUse" gradientTransform="matrix(0 9.2 -9.2 0 8 21.2)"><stop offset="0.59" stop-color="#2763E5" stop-opacity="0"></stop><stop offset="0.97" stop-color="#58AAFE"></stop></radialGradient><linearGradient id="paint1_linear_79314_10633" x1="5" y1="16.95" x2="21.85" y2="16.95" gradientUnits="userSpaceOnUse"><stop stop-color="#66C0FF"></stop><stop offset="0.26" stop-color="#0094F0"></stop></linearGradient><linearGradient id="paint3_linear_79314_10633" x1="16" y1="16.95" x2="16" y2="10.91" gradientUnits="userSpaceOnUse"><stop stop-color="#4F006F" stop-opacity="0"></stop><stop offset="0.58" stop-color="#4F006F" stop-opacity="0.44"></stop><stop offset="1" stop-color="#4F006F"></stop></linearGradient><linearGradient id="paint4_linear_79314_10633" x1="5" y1="9.61" x2="27" y2="9.61" gradientUnits="userSpaceOnUse"><stop stop-color="#9DEAFF"></stop><stop offset="0.2" stop-color="#3BD5FF"></stop></linearGradient></defs></svg>